<svg width="10" height="14" viewBox="0 0 10 14" fill="none" xmlns="http://www.w3.org/2000/svg">
    <path d="M1.05 13.3C0.758333 13.3 0.510417 13.1979 0.30625 12.9937C0.102083 12.7896 0 12.5417 0 12.25V4.025C0 3.68667 0.119583 3.39792 0.35875 3.15875C0.597916 2.91958 0.886667 2.8 1.225 2.8H2.8V0.525C2.8 0.373333 2.84958 0.247917 2.94875 0.14875C3.04792 0.0495834 3.17333 0 3.325 0H6.475C6.62667 0 6.75208 0.0495834 6.85125 0.14875C6.95042 0.247917 7 0.373333 7 0.525V2.8H8.75C9.04167 2.8 9.28958 2.90208 9.49375 3.10625C9.69792 3.31042 9.8 3.55833 9.8 3.85V12.25C9.8 12.5417 9.69792 12.7896 9.49375 12.9937C9.28958 13.1979 9.04167 13.3 8.75 13.3C8.75 13.4983 8.68292 13.6646 8.54875 13.7987C8.41458 13.9329 8.24833 14 8.05 14C7.85167 14 7.68542 13.9329 7.55125 13.7987C7.41708 13.6646 7.35 13.4983 7.35 13.3H2.45C2.45 13.4983 2.38292 13.6646 2.24875 13.7987C2.11458 13.9329 1.94833 14 1.75 14C1.55167 14 1.38542 13.9329 1.25125 13.7987C1.11708 13.6646 1.05 13.4983 1.05 13.3ZM3.5 2.8H6.3V0.7H3.5V2.8ZM1.05 12.25H8.75V3.85H1.05V12.25ZM2.275 10.85C2.275 10.9433 2.31 11.025 2.38 11.095C2.45 11.165 2.53167 11.2 2.625 11.2C2.71833 11.2 2.8 11.165 2.87 11.095C2.94 11.025 2.975 10.9433 2.975 10.85V5.25C2.975 5.15667 2.94 5.075 2.87 5.005C2.8 4.935 2.71833 4.9 2.625 4.9C2.53167 4.9 2.45 4.935 2.38 5.005C2.31 5.075 2.275 5.15667 2.275 5.25V10.85ZM4.55 10.85C4.55 10.9433 4.585 11.025 4.655 11.095C4.725 11.165 4.80667 11.2 4.9 11.2C4.99333 11.2 5.075 11.165 5.145 11.095C5.215 11.025 5.25 10.9433 5.25 10.85V5.25C5.25 5.15667 5.215 5.075 5.145 5.005C5.075 4.935 4.99333 4.9 4.9 4.9C4.80667 4.9 4.725 4.935 4.655 5.005C4.585 5.075 4.55 5.15667 4.55 5.25V10.85ZM6.825 10.85C6.825 10.9433 6.86 11.025 6.93 11.095C7 11.165 7.08167 11.2 7.175 11.2C7.26833 11.2 7.35 11.165 7.42 11.095C7.49 11.025 7.525 10.9433 7.525 10.85V5.25C7.525 5.15667 7.49 5.075 7.42 5.005C7.35 4.935 7.26833 4.9 7.175 4.9C7.08167 4.9 7 4.935 6.93 5.005C6.86 5.075 6.825 5.15667 6.825 5.25V10.85ZM1.05 12.25V3.85V12.25Z" fill="#4C4C4C"/>
</svg>
