<svg width="12" height="12" viewBox="0 0 12 12" fill="none" xmlns="http://www.w3.org/2000/svg">
    <path d="M6 6.875L1.625 11.25C1.5 11.375 1.35417 11.4375 1.1875 11.4375C1.02083 11.4375 0.875 11.375 0.75 11.25C0.625 11.125 0.5625 10.9792 0.5625 10.8125C0.5625 10.6458 0.625 10.5 0.75 10.375L5.125 6L0.75 1.625C0.625 1.5 0.5625 1.35417 0.5625 1.1875C0.5625 1.02083 0.625 0.875 0.75 0.75C0.875 0.625 1.02083 0.5625 1.1875 0.5625C1.35417 0.5625 1.5 0.625 1.625 0.75L6 5.125L10.375 0.75C10.5 0.625 10.6458 0.5625 10.8125 0.5625C10.9792 0.5625 11.125 0.625 11.25 0.75C11.375 0.875 11.4375 1.02083 11.4375 1.1875C11.4375 1.35417 11.375 1.5 11.25 1.625L6.875 6L11.25 10.375C11.375 10.5 11.4375 10.6458 11.4375 10.8125C11.4375 10.9792 11.375 11.125 11.25 11.25C11.125 11.375 10.9792 11.4375 10.8125 11.4375C10.6458 11.4375 10.5 11.375 10.375 11.25L6 6.875Z" fill="#4C4C4C"/>
</svg>
