<svg width="420" height="113" viewBox="0 0 420 113" fill="none" xmlns="http://www.w3.org/2000/svg">
    <path d="M0.0800004 0.895996H14.16C20.176 0.895996 25.1253 2.06933 29.008 4.416C32.8907 6.72 35.7067 9.728 37.456 13.44C39.248 17.1093 40.144 21.056 40.144 25.28C40.144 29.8027 39.0773 33.792 36.944 37.248C34.8107 40.704 31.9307 43.3707 28.304 45.248C24.72 47.0827 20.7733 48 16.464 48H0.0800004V0.895996ZM14.864 39.04C19.6853 39.04 23.504 37.8027 26.32 35.328C29.136 32.8533 30.544 29.2907 30.544 24.64C30.544 20.8853 29.7547 17.8987 28.176 15.68C26.64 13.4613 24.8267 11.9253 22.736 11.072C20.688 10.2187 18.7467 9.792 16.912 9.792H9.36V39.04H14.864ZM71.535 0.895996V48H62.255V0.895996H71.535ZM121.645 12.288C117.549 10.0267 113.986 8.896 110.956 8.896C108.908 8.896 107.308 9.30133 106.156 10.112C105.047 10.9227 104.492 12.1387 104.492 13.76C104.492 15.2533 105.303 16.576 106.924 17.728C108.588 18.8373 110.786 19.904 113.517 20.928C115.735 21.7387 117.634 22.6773 119.212 23.744C120.791 24.768 122.093 26.1973 123.117 28.032C124.183 29.8667 124.716 32.192 124.716 35.008C124.716 37.44 124.076 39.7013 122.797 41.792C121.559 43.84 119.725 45.4827 117.292 46.72C114.86 47.9147 111.959 48.512 108.588 48.512C105.772 48.512 102.978 48.1067 100.204 47.296C97.4312 46.4427 94.8498 45.1627 92.4605 43.456L96.5565 36.224C98.1778 37.4187 100.034 38.4 102.124 39.168C104.215 39.936 106.092 40.32 107.757 40.32C109.719 40.32 111.426 39.9147 112.876 39.104C114.327 38.2507 115.052 36.8853 115.052 35.008C115.052 32.576 112.77 30.464 108.205 28.672C105.516 27.6053 103.276 26.5813 101.484 25.6C99.6925 24.6187 98.1352 23.2107 96.8125 21.376C95.5325 19.5413 94.8925 17.2373 94.8925 14.464C94.8925 10.4107 96.2152 7.14666 98.8605 4.672C101.548 2.19733 105.111 0.853333 109.549 0.639999C113.047 0.639999 115.97 1.04533 118.316 1.856C120.663 2.624 122.946 3.73333 125.165 5.184L121.645 12.288ZM181.933 44.096C180.738 45.0773 178.84 46.0587 176.237 47.04C173.634 48.0213 170.797 48.512 167.725 48.512C162.818 48.512 158.552 47.4453 154.925 45.312C151.298 43.1787 148.525 40.32 146.605 36.736C144.685 33.1093 143.725 29.1413 143.725 24.832C143.725 20.096 144.685 15.872 146.605 12.16C148.525 8.448 151.213 5.568 154.669 3.52C158.125 1.42933 162.114 0.383999 166.637 0.383999C169.496 0.383999 172.141 0.767999 174.573 1.536C177.005 2.304 179.138 3.264 180.973 4.416L177.325 13.184C173.954 10.624 170.498 9.344 166.957 9.344C164.568 9.344 162.328 10.0053 160.237 11.328C158.146 12.6507 156.482 14.464 155.245 16.768C154.008 19.0293 153.389 21.5467 153.389 24.32C153.389 27.3493 153.965 30.016 155.117 32.32C156.269 34.5813 157.912 36.352 160.045 37.632C162.178 38.912 164.674 39.552 167.533 39.552C169.837 39.552 171.906 39.1893 173.741 38.464C175.576 37.696 177.026 36.8 178.093 35.776L181.933 44.096ZM201.15 24.512C201.15 20.2453 202.217 16.256 204.35 12.544C206.526 8.832 209.449 5.888 213.118 3.712C216.83 1.49333 220.841 0.383999 225.15 0.383999C229.459 0.383999 233.449 1.49333 237.118 3.712C240.83 5.888 243.774 8.832 245.95 12.544C248.169 16.256 249.278 20.2453 249.278 24.512C249.278 28.864 248.169 32.8747 245.95 36.544C243.774 40.2133 240.83 43.136 237.118 45.312C233.449 47.4453 229.459 48.512 225.15 48.512C220.798 48.512 216.787 47.4453 213.118 45.312C209.449 43.136 206.526 40.2133 204.35 36.544C202.217 32.8747 201.15 28.864 201.15 24.512ZM210.75 24.512C210.75 27.2427 211.39 29.76 212.67 32.064C213.993 34.368 215.763 36.2027 217.982 37.568C220.243 38.8907 222.739 39.552 225.47 39.552C228.115 39.552 230.526 38.8907 232.702 37.568C234.878 36.2027 236.585 34.3893 237.822 32.128C239.059 29.824 239.678 27.2853 239.678 24.512C239.678 21.696 239.038 19.136 237.758 16.832C236.478 14.528 234.729 12.7147 232.51 11.392C230.334 10.0267 227.902 9.344 225.214 9.344C222.526 9.344 220.073 10.0267 217.854 11.392C215.678 12.7147 213.95 14.528 212.67 16.832C211.39 19.136 210.75 21.696 210.75 24.512ZM307.119 0.895996L285.615 50.176L264.111 0.895996H275.247L285.999 27.456L296.111 0.895996H307.119ZM360.195 0.895996V9.856H337.347V19.904H357.571V28.864H337.347V39.04H361.091V48H328.067V0.895996H360.195ZM408.901 48L398.981 33.024H392.773V48H383.493V0.895996H397.765C403.61 0.895996 408.133 2.32533 411.333 5.184C414.575 8 416.197 11.8613 416.197 16.768C416.197 19.6693 415.578 22.4 414.341 24.96C413.146 27.4773 411.29 29.4613 408.773 30.912L419.717 48H408.901ZM392.773 24.064H399.365C401.882 24.064 403.717 23.3387 404.869 21.888C406.021 20.3947 406.597 18.7947 406.597 17.088C406.597 15.3813 406.106 13.76 405.125 12.224C404.143 10.6453 402.245 9.856 399.429 9.856H392.773V24.064Z" fill="white"/>
    <path d="M110.488 87.136L110.584 86.752H105.448L106.984 77.2H106.6C106.072 80.032 105.448 83.056 103.768 84.88C101.704 86.368 98.776 86.752 95.416 86.752H93.304L93.208 87.136H96.76L93.88 105.472C93.064 110.704 95.704 112.384 98.92 112.384C102.664 112.384 105.976 110.272 106.744 106.24H106.36C105.832 108.448 104.776 109.792 103.528 109.792C101.8 109.792 102.232 107.392 102.52 105.472L105.4 87.136H110.488ZM138.877 106.528C138.445 108.448 137.389 109.792 136.333 109.792C134.557 109.792 135.037 107.392 135.325 105.472L137.245 93.568C137.917 89.344 137.053 86.368 132.829 86.368C129.229 86.368 125.101 88.912 121.261 95.008L123.613 81.232C124.141 78.256 124.669 74.08 120.061 74.08C117.037 74.08 113.533 75.904 111.373 77.68L111.565 78.064C112.429 77.44 113.101 77.056 113.869 77.056C115.597 77.056 115.309 78.88 115.021 80.656L110.029 112.384C112.909 112 115.789 111.904 118.717 112L121.213 95.728C123.517 92.128 125.773 89.968 127.357 89.968C128.557 89.968 128.941 91.12 128.461 94.096L126.637 105.52C125.821 110.752 128.461 112.432 131.677 112.432C135.421 112.432 138.541 110.32 139.213 106.576L138.877 106.528ZM156.507 106.576C152.619 106.48 150.027 103.792 150.027 98.464C150.027 97.984 150.027 97.504 150.075 96.976C161.451 98.8 166.107 95.392 166.107 91.888C166.107 87.424 160.635 86.464 156.699 86.416C147.531 86.416 140.715 93.712 140.715 102.064C140.715 108.448 144.843 112.432 150.843 112.432C156.459 112.432 161.643 108.976 164.906 103.072L164.571 102.928C162.411 105.904 159.003 106.672 156.459 106.624L156.507 106.576ZM156.699 86.8C158.331 86.8 159.003 88.048 159.003 89.776C159.003 92.656 156.411 96.736 150.123 96.496C150.699 91.792 153.195 86.8 156.699 86.8ZM215.016 86.368C212.328 86.368 210.072 88.288 210.072 90.832C210.072 92.944 211.416 94.864 213.672 95.152C214.2 93.76 215.4 93.28 216.744 93.28C218.376 93.28 219.48 94 219.48 96.16C219.48 101.968 211.704 110.56 206.904 110.56C204.36 110.56 204.312 108.544 205.032 104.032L207.864 86.752C204.984 87.136 202.152 87.232 199.272 87.136L196.536 104.752C195.816 106.768 193.176 110.56 190.728 110.56C188.376 110.56 189 107.008 189.48 104.08L191.448 92.416C192.12 88.336 190.776 86.608 187.704 86.608C184.68 86.608 181.368 88.24 178.92 90.208L179.112 90.592C179.976 89.968 180.648 89.584 181.416 89.584C183.24 89.584 182.808 91.504 182.568 93.184L180.792 104.608C179.928 110.176 182.712 112.384 186.936 112.384C190.632 112.384 194.328 109.984 196.44 105.664C195.96 109.888 197.688 112.384 202.152 112.384C210.744 112.384 220.392 103.216 220.392 93.568C220.392 88.624 217.848 86.368 214.968 86.368H215.016ZM237.93 86.368C229.29 86.368 222.234 93.28 222.234 101.488C222.234 107.824 226.986 112.384 233.85 112.384C242.394 112.384 249.594 105.232 249.594 97.264C249.594 90.928 244.842 86.368 237.93 86.368ZM233.898 112C231.546 112 231.018 109.36 231.018 106.528C231.018 101.536 232.602 86.752 237.882 86.752C240.282 86.752 240.81 89.488 240.81 92.32C240.81 97.984 239.226 112 233.898 112ZM272.924 86.368C268.268 86.368 265.916 90.688 263.948 95.296L264.476 92.896C265.484 88.192 263.852 86.56 261.068 86.56C257.756 86.56 254.54 88.192 252.092 90.16L252.284 90.544C253.148 89.92 253.82 89.536 254.588 89.536C256.412 89.536 255.98 91.456 255.74 93.136L252.764 112.384C255.644 112 258.524 111.904 261.452 112L263.852 96.544C265.772 91.6 268.268 87.76 270.38 87.76C271.484 87.76 271.964 88.768 271.964 90.016C271.964 91.696 270.908 93.664 268.748 94.096C268.844 96.832 270.524 98.128 272.684 98.128C276.044 98.128 278.684 95.152 278.684 91.792C278.684 88.96 276.764 86.416 272.924 86.416V86.368ZM285.297 112.384C289.041 112.384 292.161 110.272 292.833 106.528H292.449C292.017 108.448 290.961 109.792 289.905 109.792C288.177 109.792 288.609 107.392 288.897 105.472L292.785 81.232C293.265 78.256 293.841 74.08 289.233 74.08C286.209 74.08 282.705 75.904 280.545 77.68L280.737 78.064C281.601 77.44 282.273 77.056 283.041 77.056C284.769 77.056 284.481 78.88 284.193 80.656L280.257 105.472C279.441 110.704 282.081 112.384 285.297 112.384ZM320.476 109.792C318.748 109.792 319.18 107.392 319.468 105.472L323.356 80.656C323.74 78.256 324.268 74.08 319.612 74.08C316.684 74.08 313.18 75.712 310.732 77.68L310.924 78.064C311.788 77.44 312.46 77.056 313.228 77.056C315.34 77.056 314.812 79.936 314.572 81.664L313.852 86.992C313.132 86.704 312.076 86.368 311.068 86.368C301.66 86.368 294.748 95.344 294.748 103.696C294.748 108.736 297.292 112.384 301.996 112.384C305.644 112.384 309.1 110.272 310.78 106.768C310.684 111.28 313.132 112.336 315.868 112.336C319.612 112.336 322.732 110.272 323.404 106.528H323.02C322.588 108.448 321.532 109.792 320.476 109.792ZM310.828 105.904C310.204 107.632 308.284 109.792 306.412 109.792C304.3 109.792 303.82 107.872 303.82 104.704C303.82 98.512 306.364 86.752 310.972 86.752C313.084 86.752 313.612 88.384 312.988 92.272L310.828 105.904Z" fill="white"/>
</svg>
