<svg width="10" height="6" viewBox="0 0 10 6" fill="none" xmlns="http://www.w3.org/2000/svg">
    <path d="M9.61241 0.45C9.51241 0.358333 9.39574 0.310417 9.26241 0.30625C9.12907 0.302083 9.01241 0.35 8.91241 0.45L4.97491 4.3875L1.03741 0.45C0.945741 0.358333 0.831158 0.310416 0.693658 0.30625C0.556158 0.302083 0.437408 0.35 0.337408 0.45C0.237408 0.541666 0.185325 0.65625 0.181158 0.79375C0.176992 0.93125 0.224908 1.05 0.324908 1.15L4.71241 5.5375C4.75407 5.57917 4.79574 5.60833 4.83741 5.625C4.87907 5.64167 4.92491 5.65 4.97491 5.65C5.02491 5.65 5.07074 5.64167 5.11241 5.625C5.15407 5.60833 5.19574 5.57917 5.23741 5.5375L9.62491 1.15C9.71657 1.05833 9.76241 0.94375 9.76241 0.80625C9.76241 0.66875 9.71241 0.55 9.61241 0.45Z" fill="white"/>
</svg>
