<svg width="8" height="4" viewBox="0 0 8 4" fill="none" xmlns="http://www.w3.org/2000/svg">
    <path d="M0.924982 0.299979C0.991649 0.238868 1.06943 0.206924 1.15832 0.204146C1.2472 0.201368 1.32498 0.233313 1.39165 0.299979L4.01665 2.92498L6.64165 0.299979C6.70276 0.238868 6.77915 0.206924 6.87081 0.204146C6.96248 0.201368 7.04165 0.233313 7.10831 0.299979C7.17498 0.361091 7.2097 0.437479 7.21248 0.529146C7.21526 0.620813 7.18331 0.699979 7.11665 0.766646L4.19165 3.69165C4.16387 3.71942 4.13609 3.73887 4.10831 3.74998C4.08054 3.76109 4.04998 3.76664 4.01665 3.76664C3.98331 3.76664 3.95276 3.76109 3.92498 3.74998C3.8972 3.73887 3.86943 3.71942 3.84165 3.69164L0.916649 0.766646C0.855538 0.705535 0.824983 0.629146 0.824983 0.537479C0.824983 0.445812 0.858315 0.366646 0.924982 0.299979Z" fill="#6648D8"/>
</svg>
