<svg width="300" height="300" viewBox="0 0 300 300" fill="none" xmlns="http://www.w3.org/2000/svg">
    <path d="M300 229.44H0V229.59H300V229.44Z" fill="#EBEBEB"/>
    <path d="M269.94 239.094H256.932V239.244H269.94V239.094Z" fill="#EBEBEB"/>
    <path d="M206.802 235.986H186.336V236.136H206.802V235.986Z" fill="#EBEBEB"/>
    <path d="M264.671 233.526H237.953V233.676H264.671V233.526Z" fill="#EBEBEB"/>
    <path d="M103.813 236.55H97.1289V236.7H103.813V236.55Z" fill="#EBEBEB"/>
    <path d="M91.782 236.55H68.748V236.7H91.782V236.55Z" fill="#EBEBEB"/>
    <path d="M56.4052 234.018H39.7852V234.168H56.4052V234.018Z" fill="#EBEBEB"/>
    <path d="M142.206 202.68H26.3518C24.4618 202.68 22.9258 201.144 22.9258 199.254V36.396C22.9258 34.506 24.4618 32.97 26.3518 32.97H142.212C144.102 32.97 145.638 34.506 145.638 36.396V199.254C145.632 201.144 144.096 202.68 142.206 202.68ZM26.3518 33.12C24.5458 33.12 23.0758 34.59 23.0758 36.396V199.254C23.0758 201.06 24.5458 202.53 26.3518 202.53H142.212C144.018 202.53 145.488 201.06 145.488 199.254V36.396C145.488 34.59 144.018 33.12 142.212 33.12H26.3518V33.12Z" fill="#EBEBEB"/>
    <path d="M271.985 202.68H156.125C154.235 202.68 152.699 201.144 152.699 199.254V36.396C152.699 34.506 154.235 32.97 156.125 32.97H271.985C273.875 32.97 275.411 34.506 275.411 36.396V199.254C275.411 201.144 273.875 202.68 271.985 202.68ZM156.125 33.12C154.319 33.12 152.849 34.59 152.849 36.396V199.254C152.849 201.06 154.319 202.53 156.125 202.53H271.985C273.791 202.53 275.261 201.06 275.261 199.254V36.396C275.261 34.59 273.791 33.12 271.985 33.12H156.125V33.12Z" fill="#EBEBEB"/>
    <path d="M38.8104 127.263L136.4 127.263V45.1647L38.8104 45.1647L38.8104 127.263Z" fill="#E6E6E6"/>
    <path d="M36.4885 127.263L135.314 127.263V45.1647L36.4885 45.1647L36.4885 127.263Z" fill="#F0F0F0"/>
    <path d="M38.8104 130.783H136.4V127.261L38.8104 127.261V130.783Z" fill="#E6E6E6"/>
    <path d="M32.6232 130.783H131.449V127.261L32.6232 127.261V130.783Z" fill="#F0F0F0"/>
    <path d="M132.062 124.014V48.4197L39.7405 48.4197L39.7405 124.014L132.062 124.014Z" fill="#FAFAFA"/>
    <path d="M94.6015 124.014L85.5535 48.42H71.4355L80.4835 124.014H94.6015Z" fill="white"/>
    <path d="M130.56 120.78C130.686 120.78 130.794 120.678 130.794 120.546V50.532C130.794 50.406 130.692 50.298 130.56 50.298C130.434 50.298 130.326 50.4 130.326 50.532V120.546C130.326 120.672 130.434 120.78 130.56 120.78Z" fill="#F0F0F0"/>
    <path d="M77.4544 124.014L68.4064 48.42H62.8984L71.9464 124.014H77.4544Z" fill="white"/>
    <path d="M40.1543 124.009L40.1543 48.4153H39.7403L39.7403 124.009H40.1543Z" fill="#E6E6E6"/>
    <path opacity="0.6" d="M35.7246 54.546H133.309L133.609 49.68H36.0246L35.7246 54.546Z" fill="#EBEBEB"/>
    <path opacity="0.6" d="M35.7246 62.526H133.309L133.609 57.66H36.0246L35.7246 62.526Z" fill="#EBEBEB"/>
    <path opacity="0.6" d="M35.7246 70.506H133.309L133.609 65.64H36.0246L35.7246 70.506Z" fill="#EBEBEB"/>
    <path opacity="0.6" d="M35.7246 78.492H133.309L133.609 73.626H36.0246L35.7246 78.492Z" fill="#EBEBEB"/>
    <path opacity="0.6" d="M35.7246 86.472H133.309L133.609 81.606H36.0246L35.7246 86.472Z" fill="#EBEBEB"/>
    <path opacity="0.6" d="M35.7246 94.452H133.309L133.609 89.586H36.0246L35.7246 94.452Z" fill="#EBEBEB"/>
    <path d="M254.964 59.118H157.182V124.788H254.964V59.118Z" fill="#F5F5F5"/>
    <path d="M254.966 124.791H257.264V59.1206H254.966V124.791Z" fill="#E0E0E0"/>
    <path d="M191.262 72.042H171.762V101.724H191.262V72.042Z" fill="white"/>
    <path d="M202.488 109.56H182.988L183.48 79.878H202.98L202.488 109.56Z" fill="white"/>
    <path d="M243.197 65.226H223.697V94.908H243.197V65.226Z" fill="white"/>
    <path d="M225.858 116.46H207.84L209.058 89.034H227.076L225.858 116.46Z" fill="white"/>
    <path d="M214.752 142.83C214.752 142.83 215.214 156.228 232.866 156.228C250.518 156.228 250.98 142.83 250.98 142.83H214.752Z" fill="#F0F0F0"/>
    <path d="M240.511 223.688H266.107V161.774H240.511V223.688Z" fill="#F0F0F0"/>
    <path d="M134.973 229.438L261.195 229.438V223.69L134.973 223.69V229.438Z" fill="#F0F0F0"/>
    <path d="M240.511 161.778H130.057V223.692H240.511V161.778Z" fill="#F5F5F5"/>
    <path d="M230.449 169.308H140.119V188.358H230.449V169.308Z" fill="#F0F0F0"/>
    <path d="M230.449 193.788H140.119V212.838H230.449V193.788Z" fill="#F0F0F0"/>
    <path d="M174.69 172.566H195.882C197.004 172.566 197.922 171.648 197.922 170.526C197.922 169.404 197.004 168.486 195.882 168.486H174.69C173.568 168.486 172.65 169.404 172.65 170.526C172.65 171.648 173.568 172.566 174.69 172.566Z" fill="#F5F5F5"/>
    <path d="M174.69 197.046H195.882C197.004 197.046 197.922 196.128 197.922 195.006C197.922 193.884 197.004 192.966 195.882 192.966H174.69C173.568 192.966 172.65 193.884 172.65 195.006C172.65 196.128 173.568 197.046 174.69 197.046Z" fill="#F5F5F5"/>
    <path d="M126.644 161.777H240.512V156.227H126.644V161.777Z" fill="#F0F0F0"/>
    <path d="M269.688 156.222H240.516V161.772H269.688V156.222Z" fill="#E6E6E6"/>
    <path d="M75.0175 153.372H38.8555V229.44H75.0175V153.372Z" fill="#F5F5F5"/>
    <path d="M42.9277 225.079L42.9277 157.735H42.2977L42.2977 225.079H42.9277Z" fill="#E6E6E6"/>
    <path d="M71.0028 157.734H42.2988V158.532H71.0028V157.734Z" fill="#E6E6E6"/>
    <path d="M111.81 153.372H75.6484V229.44H111.81V153.372Z" fill="#F5F5F5"/>
    <path d="M111.814 229.439H115.42L115.42 153.371H111.814L111.814 229.439Z" fill="#E0E0E0"/>
    <path d="M79.7207 225.079L79.7207 157.735H79.0907L79.0907 225.079H79.7207Z" fill="#E6E6E6"/>
    <path d="M75.6484 229.439L75.6484 154.007H75.0184L75.0184 229.439H75.6484Z" fill="#E6E6E6"/>
    <path d="M107.796 157.734H79.0918V158.532H107.796V157.734Z" fill="#E6E6E6"/>
    <path d="M73.1507 158.13C73.5227 158.13 73.8287 158.436 73.8287 158.808V169.83C73.8287 170.202 73.5227 170.508 73.1507 170.508C72.7787 170.508 72.4727 170.202 72.4727 169.83V158.808C72.4727 158.436 72.7787 158.13 73.1507 158.13Z" fill="#E0E0E0"/>
    <path d="M77.5198 158.13C77.8918 158.13 78.1978 158.436 78.1978 158.808V169.83C78.1978 170.202 77.8918 170.508 77.5198 170.508C77.1478 170.508 76.8418 170.202 76.8418 169.83V158.808C76.8418 158.436 77.1478 158.13 77.5198 158.13Z" fill="#E0E0E0"/>
    <path d="M150 256.536C214.249 256.536 266.334 253.495 266.334 249.744C266.334 245.993 214.249 242.952 150 242.952C85.7505 242.952 33.666 245.993 33.666 249.744C33.666 253.495 85.7505 256.536 150 256.536Z" fill="#F5F5F5"/>
    <path d="M182.484 163.878C184.56 173.646 173.424 177.78 168.798 173.484C164.178 169.188 164.394 155.988 158.16 155.652C167.166 148.68 180.462 154.368 182.484 163.878Z" fill="#263238"/>
    <path d="M173.395 224.856C172.873 224.856 172.423 224.466 172.363 223.938C170.059 204.552 172.981 158.244 196.711 138.828C197.155 138.462 197.815 138.528 198.175 138.972C198.541 139.416 198.475 140.076 198.031 140.436C174.967 159.306 172.171 204.672 174.427 223.686C174.493 224.256 174.085 224.778 173.515 224.844C173.479 224.85 173.437 224.856 173.395 224.856Z" fill="#6648D8"/>
    <path d="M164.941 249.744H181.844C183.014 249.744 184.028 248.934 184.28 247.794L191.33 216.522C191.684 214.962 190.496 213.474 188.894 213.474H157.886C156.284 213.474 155.095 214.962 155.449 216.522L162.499 247.794C162.763 248.934 163.777 249.744 164.941 249.744Z" fill="#6648D8"/>
    <path opacity="0.6" d="M164.941 249.744H181.844C183.014 249.744 184.028 248.934 184.28 247.794L191.33 216.522C191.684 214.962 190.496 213.474 188.894 213.474H157.886C156.284 213.474 155.095 214.962 155.449 216.522L162.499 247.794C162.763 248.934 163.777 249.744 164.941 249.744Z" fill="white"/>
    <path d="M180.624 165.828C180.546 165.828 180.468 165.816 180.384 165.798C179.826 165.666 179.478 165.108 179.604 164.55C179.64 164.4 183 149.646 177.84 140.976C177.546 140.484 177.708 139.842 178.2 139.548C178.692 139.254 179.334 139.416 179.628 139.908C185.22 149.304 181.782 164.382 181.632 165.018C181.524 165.504 181.098 165.828 180.624 165.828Z" fill="#6648D8"/>
    <path d="M189.374 135.216C188.954 144.63 209.402 149.13 215.954 145.146C222.506 141.162 217.88 128.31 228.476 128.25C210.764 121.08 189.782 126.048 189.374 135.216Z" fill="#6648D8"/>
    <path d="M184.422 136.59C188.31 144.264 177.624 148.794 172.104 145.812C166.59 142.83 164.442 132.144 157.98 132.534C165.972 125.94 180.636 129.12 184.422 136.59Z" fill="#6648D8"/>
    <path d="M172.789 209.01C172.777 209.01 172.765 209.01 172.753 209.01C172.177 208.992 171.727 208.506 171.751 207.93C171.757 207.774 172.213 192.234 163.483 190.356C162.919 190.236 162.565 189.684 162.685 189.12C162.805 188.556 163.363 188.202 163.921 188.322C174.355 190.56 173.863 207.294 173.839 208.008C173.809 208.566 173.347 209.01 172.789 209.01Z" fill="#6648D8"/>
    <path d="M169.861 186.78C172.573 191.802 164.257 197.934 160.147 196.962C156.037 195.99 154.753 188.19 149.809 190.074C156.133 182.988 167.221 181.89 169.861 186.78Z" fill="#6648D8"/>
    <path d="M173.876 194.31C173.804 194.31 173.726 194.304 173.648 194.286C173.084 194.16 172.73 193.608 172.856 193.044C173.012 192.336 176.816 175.674 188.18 171.246C188.714 171.036 189.32 171.3 189.53 171.84C189.74 172.374 189.476 172.98 188.936 173.19C178.598 177.222 174.926 193.338 174.89 193.5C174.782 193.98 174.356 194.31 173.876 194.31Z" fill="#6648D8"/>
    <path d="M186.355 165.792C178.165 170.076 183.691 179.232 190.069 179.61C196.447 179.994 205.255 172.356 210.151 175.974C208.153 166.512 194.335 161.622 186.355 165.792Z" fill="#6648D8"/>
    <path d="M118.663 129.654C118.117 129.252 118.003 128.484 118.399 127.938L170.041 57.69C170.443 57.144 171.211 57.03 171.757 57.426C172.303 57.828 172.417 58.596 172.021 59.142L120.385 129.39C119.977 129.936 119.209 130.056 118.663 129.654Z" fill="#6648D8"/>
    <path d="M197.093 89.887L195.17 92.5019L195.663 92.8646L197.586 90.2496L197.093 89.887Z" fill="#6648D8"/>
    <path d="M199.544 87.582L199.052 87.216C200.324 85.488 199.952 83.046 198.218 81.774L185.066 72.108L185.432 71.616L198.584 81.282C200.582 82.752 201.014 85.584 199.544 87.582Z" fill="#6648D8"/>
    <path d="M177.573 109.854L119.979 67.518C118.929 66.744 118.701 65.268 119.475 64.218L136.413 41.178C137.187 40.128 138.663 39.9 139.713 40.674L197.307 83.01C198.357 83.784 198.585 85.26 197.811 86.31L180.873 109.35C180.105 110.406 178.629 110.628 177.573 109.854Z" fill="white"/>
    <path d="M178.97 110.622C178.406 110.622 177.86 110.442 177.398 110.106L119.804 67.77C119.228 67.35 118.856 66.726 118.748 66.024C118.64 65.322 118.814 64.614 119.234 64.044L136.172 41.004C136.592 40.428 137.216 40.056 137.918 39.948C138.62 39.84 139.328 40.014 139.898 40.434L197.492 82.77C198.068 83.19 198.44 83.814 198.548 84.516C198.656 85.218 198.482 85.926 198.062 86.496L181.124 109.536C180.704 110.112 180.08 110.484 179.378 110.592C179.24 110.61 179.102 110.622 178.97 110.622ZM177.758 109.608C178.202 109.932 178.742 110.07 179.282 109.986C179.822 109.902 180.302 109.614 180.626 109.17L197.564 86.13C198.236 85.218 198.038 83.928 197.126 83.256L139.532 40.92C139.088 40.596 138.548 40.464 138.008 40.542C137.468 40.626 136.988 40.914 136.664 41.358L119.726 64.398C119.402 64.842 119.27 65.382 119.348 65.922C119.432 66.462 119.72 66.942 120.164 67.266L177.758 109.608Z" fill="#6648D8"/>
    <path d="M141.544 59.6209L140.09 58.5517L140.883 51.5198L137.249 56.4619L135.894 55.4656L141.011 48.5079L142.536 49.6292L141.734 56.5241L145.306 51.6669L146.661 52.6632L141.544 59.6209ZM150.391 59.2027C150.425 60.0665 150.168 60.8697 149.622 61.6124C149.067 62.3677 148.374 62.8546 147.544 63.0734C146.716 63.289 145.86 63.0716 144.976 62.4213C144.092 61.771 143.629 61.0186 143.588 60.1643C143.55 59.3068 143.808 58.5004 144.364 57.7452C144.91 57.0025 145.6 56.5187 146.435 56.2936C147.27 56.0686 148.129 56.2813 149.013 56.9316C149.898 57.5819 150.357 58.339 150.391 59.2027ZM148.172 58.0657C147.779 57.7764 147.372 57.6931 146.952 57.8158C146.538 57.9377 146.141 58.2567 145.761 58.7727C145.382 59.2888 145.194 59.7644 145.199 60.1996C145.207 60.637 145.408 61.0004 145.801 61.2897C146.194 61.579 146.6 61.6611 147.016 61.5361C147.433 61.4111 147.831 61.0905 148.211 60.5744C148.59 60.0584 148.777 59.5843 148.769 59.1523C148.765 58.7172 148.565 58.355 148.172 58.0657ZM156.465 66.3906L154.964 65.2866L152.958 68.015L151.537 66.9701L156.654 60.0124L160.067 62.5222C160.548 62.8904 160.878 63.2256 161.058 63.5278C161.242 63.8324 161.346 64.1587 161.371 64.507C161.393 64.7943 161.369 65.0773 161.299 65.3561C161.23 65.6349 161.095 65.9112 160.893 66.1849C160.65 66.5154 160.327 66.7797 159.925 66.9781C159.524 67.1732 159.083 67.1957 158.602 67.0456C158.828 67.4106 158.919 67.7614 158.876 68.0977C158.837 68.4332 158.639 68.8449 158.28 69.3327L157.937 69.8C157.703 70.1178 157.557 70.3426 157.499 70.4744C157.405 70.6816 157.396 70.8785 157.472 71.0653L157.343 71.24L155.743 70.0631C155.812 69.8765 155.872 69.7291 155.923 69.6208C156.028 69.3979 156.155 69.1831 156.302 68.9762L156.768 68.3226C157.088 67.8742 157.224 67.5183 157.176 67.2547C157.13 66.9934 156.893 66.7053 156.465 66.3906ZM158.279 65.7747C158.665 65.8555 159.002 65.7007 159.289 65.3105C159.599 64.8888 159.667 64.5026 159.494 64.1519C159.397 63.9544 159.191 63.7399 158.876 63.5085L157.186 62.2657L155.811 64.1349L157.459 65.3464C157.786 65.5871 158.059 65.7299 158.279 65.7747ZM163.896 73.7321C163.637 74.0119 163.25 74.205 162.736 74.3114C161.927 74.4877 161.126 74.2843 160.333 73.7011C159.679 73.2197 159.257 72.5842 159.066 71.7945C158.876 71.0049 159.13 70.1349 159.829 69.1845C160.484 68.294 161.212 67.7766 162.011 67.6323C162.814 67.4904 163.575 67.6845 164.296 68.2144C164.724 68.5292 165.05 68.8929 165.275 69.3057C165.5 69.7184 165.597 70.18 165.566 70.6905C165.543 71.1439 165.413 71.5939 165.177 72.0407C165.038 72.3022 164.802 72.6525 164.469 73.0915L160.948 70.5018C160.587 71.0318 160.483 71.5129 160.636 71.945C160.727 72.2106 160.903 72.4394 161.164 72.6315C161.441 72.8352 161.723 72.922 162.012 72.8919C162.169 72.8764 162.339 72.8197 162.523 72.7219L163.896 73.7321ZM163.725 71.1766C163.964 70.8048 164.054 70.4559 163.993 70.1299C163.937 69.803 163.766 69.5343 163.48 69.3237C163.168 69.0946 162.854 69.0139 162.538 69.0817C162.224 69.1519 161.923 69.3375 161.634 69.6387L163.725 71.1766ZM170.918 73.6592C171.131 74.2134 171.036 74.8272 170.633 75.5006L169.288 74.5112C169.396 74.3243 169.448 74.1515 169.443 73.9929C169.43 73.7016 169.245 73.4252 168.889 73.1637C168.597 72.9485 168.354 72.8402 168.161 72.8389C167.971 72.8399 167.831 72.9018 167.741 73.0245C167.627 73.1787 167.611 73.339 167.693 73.5054C167.771 73.675 168.147 74.143 168.82 74.9094C169.263 75.4287 169.524 75.9141 169.604 76.3658C169.678 76.8182 169.573 77.238 169.289 77.625C168.914 78.1348 168.417 78.4117 167.798 78.4558C167.184 78.4991 166.481 78.2291 165.688 77.6459C164.879 77.0511 164.406 76.4415 164.269 75.817C164.137 75.1916 164.266 74.6146 164.654 74.0859L166.019 75.0892C165.871 75.3492 165.807 75.5642 165.828 75.7344C165.863 76.0364 166.105 76.3529 166.555 76.6838C166.819 76.8782 167.058 76.9928 167.27 77.0275C167.485 77.0646 167.65 77.0044 167.766 76.8471C167.877 76.696 167.899 76.5349 167.831 76.3636C167.763 76.1924 167.395 75.7134 166.727 74.9267C166.252 74.3538 165.974 73.8708 165.895 73.4778C165.813 73.0879 165.92 72.6916 166.216 72.2888C166.566 71.8136 167.051 71.5426 167.672 71.4759C168.299 71.4082 168.951 71.6232 169.627 72.1208C170.269 72.5929 170.699 73.1057 170.918 73.6592ZM172.978 81.6183C172.954 81.6248 172.888 81.6488 172.779 81.6905C172.671 81.7321 172.56 81.7574 172.447 81.7663C172.098 81.8 171.798 81.7786 171.549 81.702C171.303 81.6278 171.048 81.4934 170.783 81.299C170.022 80.739 169.71 80.088 169.849 79.346C169.923 78.9351 170.176 78.4355 170.609 77.847L172.89 74.7458L174.268 75.7594L171.987 78.8607C171.772 79.1533 171.645 79.3991 171.605 79.5979C171.536 79.9493 171.681 80.257 172.039 80.5208C172.499 80.8587 172.95 80.9045 173.393 80.6581C173.629 80.5215 173.869 80.288 174.112 79.9576L176.171 77.1585L177.535 78.1617L173.751 83.3068L172.443 82.3452L172.978 81.6183ZM180.199 77.3281L181.544 78.3174L176.427 85.2751L175.082 84.2858L180.199 77.3281ZM180.804 87.0177L180.065 88.0232L179.41 87.5781C178.758 87.1326 178.405 86.7031 178.35 86.2896C178.313 86.0243 178.412 85.7311 178.648 85.4102L180.977 82.2429L180.26 81.7152L180.965 80.757L181.682 81.2846L182.737 79.8497L184.069 80.8286L183.013 82.2636L183.849 82.878L183.144 83.8363L182.309 83.2218L180.309 85.9407C180.154 86.1515 180.083 86.3034 180.098 86.3962C180.114 86.4859 180.259 86.6314 180.533 86.8328C180.574 86.8629 180.616 86.8941 180.66 86.9265C180.71 86.9581 180.758 86.9885 180.804 87.0177ZM188.119 86.3092C188.332 86.8635 188.237 87.4773 187.834 88.1506L186.488 87.1613C186.597 86.9743 186.649 86.8015 186.644 86.643C186.63 86.3517 186.446 86.0753 186.09 85.8138C185.797 85.5985 185.555 85.4903 185.362 85.489C185.172 85.49 185.032 85.5518 184.941 85.6746C184.828 85.8287 184.812 85.9891 184.893 86.1555C184.972 86.3251 185.348 86.7931 186.021 87.5594C186.463 88.0787 186.725 88.5642 186.805 89.0158C186.879 89.4683 186.774 89.888 186.489 90.2751C186.114 90.7849 185.617 91.0618 184.998 91.1059C184.385 91.1492 183.681 90.8792 182.888 90.296C182.08 89.7012 181.607 89.0915 181.469 88.467C181.338 87.8417 181.466 87.2647 181.855 86.736L183.219 87.7392C183.072 87.9992 183.008 88.2143 183.029 88.3844C183.063 88.6865 183.306 89.0029 183.756 89.3339C184.02 89.5283 184.258 89.6429 184.47 89.6776C184.686 89.7146 184.851 89.6545 184.967 89.4971C185.078 89.3461 185.099 89.1849 185.031 89.0137C184.963 88.8425 184.596 88.3635 183.928 87.5767C183.452 87.0038 183.175 86.5209 183.095 86.1278C183.013 85.738 183.121 85.3416 183.417 84.9388C183.766 84.4637 184.252 84.1927 184.873 84.1259C185.5 84.0583 186.151 84.2733 186.828 84.7709C187.47 85.243 187.9 85.7558 188.119 86.3092ZM147.26 72.3804L143.772 69.8149L142.595 71.4151L145.649 73.6612L144.76 74.8696L141.706 72.6235L139.561 75.5407L138.116 74.4784L143.226 67.5301L148.159 71.1578L147.26 72.3804ZM151.513 77.4067C151.547 78.2705 151.291 79.0737 150.745 79.8163C150.189 80.5716 149.497 81.0586 148.667 81.2773C147.839 81.4929 146.983 81.2755 146.099 80.6252C145.214 79.9749 144.752 79.2226 144.711 78.3682C144.672 77.5107 144.931 76.7044 145.486 75.9491C146.033 75.2065 146.723 74.7226 147.558 74.4976C148.392 74.2726 149.252 74.4852 150.136 75.1355C151.02 75.7858 151.479 76.5429 151.513 77.4067ZM149.295 76.2696C148.901 75.9804 148.495 75.8971 148.075 76.0198C147.66 76.1416 147.263 76.4606 146.884 76.9767C146.504 77.4928 146.317 77.9684 146.322 78.4035C146.33 78.8409 146.53 79.2043 146.924 79.4936C147.317 79.7829 147.722 79.865 148.139 79.74C148.556 79.615 148.954 79.2945 149.333 78.7784C149.713 78.2623 149.899 77.7883 149.892 77.3563C149.887 76.9211 149.688 76.5589 149.295 76.2696ZM153.661 84.7908C153.637 84.7972 153.571 84.8213 153.463 84.8629C153.355 84.9046 153.244 84.9298 153.131 84.9387C152.781 84.9725 152.482 84.9511 152.233 84.8745C151.986 84.8002 151.731 84.6659 151.467 84.4715C150.705 83.9114 150.394 83.2604 150.532 82.5185C150.606 82.1076 150.86 81.6079 151.293 81.0195L153.574 77.9182L154.952 78.9319L152.671 82.0331C152.456 82.3258 152.328 82.5715 152.289 82.7703C152.22 83.1218 152.364 83.4294 152.723 83.6933C153.182 84.0312 153.634 84.0769 154.077 83.8306C154.313 83.694 154.553 83.4605 154.796 83.13L156.854 80.3309L158.218 81.3342L154.434 86.4793L153.127 85.5177L153.661 84.7908ZM161.21 85.0691C160.754 84.7336 160.298 84.6968 159.844 84.9589C159.605 85.0987 159.369 85.3274 159.135 85.6453L157.087 88.4302L155.747 87.4443L159.524 82.3087L160.822 83.2633L160.27 84.0139C160.637 83.8768 160.941 83.8068 161.181 83.8037C161.61 83.7997 162.038 83.9539 162.462 84.2663C162.994 84.6574 163.326 85.1169 163.456 85.6446C163.592 86.1714 163.423 86.7574 162.949 87.4025L160.401 90.8672L159.023 89.8535L161.324 86.724C161.523 86.4534 161.64 86.2191 161.674 86.0211C161.736 85.6595 161.581 85.3422 161.21 85.0691ZM171.44 88.2791L166.33 95.2274L165.022 94.2658L165.546 93.553C165.13 93.7171 164.748 93.7781 164.401 93.7361C164.053 93.694 163.697 93.5387 163.332 93.2703C162.731 92.8282 162.403 92.2133 162.347 91.4255C162.296 90.6369 162.551 89.8618 163.111 89.1003C163.757 88.2223 164.466 87.6797 165.24 87.4724C166.016 87.2675 166.742 87.4138 167.419 87.9114C167.73 88.1405 167.956 88.4134 168.097 88.7301C168.24 89.0436 168.297 89.377 168.27 89.7304L170.075 87.2759L171.44 88.2791ZM164.572 90.0218C164.223 90.497 164.038 90.9456 164.019 91.3677C163.994 91.7906 164.172 92.142 164.552 92.4221C164.933 92.7021 165.327 92.7734 165.733 92.636C166.14 92.4986 166.509 92.2049 166.84 91.7549C167.302 91.1255 167.474 90.5586 167.356 90.0543C167.281 89.7471 167.114 89.4987 166.856 89.3089C166.463 89.0196 166.064 88.9562 165.658 89.1186C165.258 89.2802 164.896 89.5812 164.572 90.0218Z" fill="black"/>
    <path d="M134.07 87.804C134.304 88.308 134.46 88.668 134.634 89.088C134.808 89.49 134.958 89.898 135.114 90.3C135.426 91.104 135.69 91.92 135.954 92.736C136.458 94.368 136.896 96.03 137.232 97.716C137.406 98.556 137.55 99.408 137.688 100.266C137.796 101.13 137.916 101.982 137.982 102.858C138.162 104.592 138.156 106.368 138.096 108.138L138.084 108.438C138.078 108.63 138.048 108.828 138 109.008C137.616 110.472 137.046 111.456 136.476 112.332C135.9 113.196 135.3 113.922 134.694 114.594C133.482 115.944 132.204 117.066 130.92 118.134C129.618 119.184 128.298 120.156 126.942 121.062C125.574 121.968 124.218 122.802 122.73 123.588C121.608 124.176 120.216 123.744 119.628 122.622C119.166 121.74 119.334 120.69 119.97 119.994L120.018 119.94L123.126 116.58C124.152 115.452 125.16 114.33 126.102 113.196C127.056 112.074 127.938 110.922 128.676 109.824C129.042 109.278 129.372 108.732 129.588 108.246C129.81 107.772 129.936 107.334 129.9 107.268L129.804 108.138C129.69 106.746 129.54 105.354 129.288 103.95C129.036 102.546 128.736 101.142 128.37 99.744C127.998 98.346 127.602 96.948 127.14 95.568C126.912 94.878 126.672 94.194 126.432 93.516L126.06 92.514L125.712 91.608L125.622 91.374C124.722 89.01 125.904 86.364 128.268 85.458C130.536 84.576 133.068 85.638 134.07 87.804Z" fill="#B55B52"/>
    <path d="M104.244 53.52C100.362 57.246 100.848 75.426 102.456 92.736C104.07 110.04 118.71 107.178 124.146 99.672C131.376 89.7 123.252 74.772 124.41 68.898C125.676 62.502 126.624 55.272 118.956 50.892C110.622 46.122 103.404 49.722 104.244 53.52Z" fill="#263238"/>
    <path d="M101.508 94.374C101.496 94.374 101.484 94.374 101.472 94.374C101.292 94.356 101.16 94.194 101.178 94.014C101.664 89.208 101.22 82.968 100.794 76.932C99.9902 65.586 99.2342 54.876 104.322 53.202C104.496 53.148 104.682 53.238 104.736 53.412C104.79 53.586 104.7 53.772 104.526 53.826C99.9182 55.338 100.698 66.288 101.448 76.884C101.88 82.944 102.324 89.214 101.832 94.074C101.82 94.248 101.676 94.374 101.508 94.374Z" fill="#263238"/>
    <path d="M108.697 90.498L107.215 94.704C106.717 96.12 106.249 97.548 105.787 98.964C105.343 100.38 104.905 101.796 104.521 103.194C104.161 104.592 103.813 105.972 103.585 107.292L103.597 106.608C103.567 107.262 103.639 108 103.885 108.804C104.017 109.2 104.173 109.62 104.359 110.046C104.551 110.472 104.791 110.898 105.043 111.33C105.553 112.2 106.177 113.064 106.867 113.916C107.215 114.342 107.569 114.768 107.947 115.182L109.045 116.382L109.285 116.646C110.137 117.576 110.071 119.016 109.147 119.868C108.469 120.486 107.521 120.624 106.729 120.288C106.333 120.12 106.051 120.006 105.721 119.862C105.409 119.718 105.097 119.562 104.791 119.406C104.185 119.082 103.585 118.74 103.009 118.362C101.845 117.606 100.741 116.718 99.6967 115.686C98.6707 114.642 97.6927 113.442 96.9127 112.02C96.5287 111.306 96.1867 110.538 95.9047 109.722C95.6287 108.9 95.4487 108.03 95.3347 107.136C95.3227 107.034 95.3167 106.932 95.3227 106.83L95.3467 106.452C95.5687 102.876 96.2347 99.618 97.0627 96.438C97.4707 94.848 97.9507 93.288 98.4547 91.74C98.9767 90.18 99.5047 88.698 100.171 87.12C101.155 84.786 103.843 83.694 106.177 84.678C108.421 85.626 109.519 88.146 108.727 90.414L108.697 90.498Z" fill="#B55B52"/>
    <path d="M106.783 81.468C102.001 82.368 100.987 84.324 97.4648 91.59C98.5268 96.372 105.211 100.572 105.211 100.572C105.211 100.572 114.673 87.654 106.783 81.468Z" fill="#6648D8"/>
    <path d="M99.1935 90.522C99.1155 93.072 99.3675 96.156 99.9375 102.222C100.322 107.364 99.0435 117.132 100.664 117.852H126.596C127.118 110.49 126.926 105.42 131.582 88.986C132.662 85.176 130.256 81.516 126.41 81.126C125.384 81.024 124.292 80.934 123.176 80.88C118.826 80.67 115.262 80.532 111.404 80.88C110.126 80.994 108.8 81.156 107.528 81.336C102.95 81.972 99.3375 85.956 99.1935 90.522Z" fill="#6648D8"/>
    <path d="M111.007 87.198C110.869 87.678 110.587 88.026 110.377 87.966C110.167 87.906 110.101 87.468 110.239 86.982C110.377 86.502 110.659 86.154 110.869 86.214C111.079 86.28 111.145 86.718 111.007 87.198Z" fill="white"/>
    <path d="M110.053 91.206C109.993 91.704 109.765 92.088 109.543 92.058C109.321 92.028 109.195 91.608 109.255 91.11C109.315 90.612 109.543 90.228 109.765 90.258C109.981 90.282 110.113 90.708 110.053 91.206Z" fill="white"/>
    <path d="M120.679 68.034C120.565 71.958 120.061 78.354 122.521 80.886C122.521 80.886 118.933 80.346 111.313 85.056C109.105 81.894 110.743 80.886 110.743 80.886C112.909 80.49 114.811 78.276 113.623 75.534L120.679 68.034Z" fill="#B55B52"/>
    <path d="M112.92 84.108C115.428 84.468 116.214 88.254 116.214 88.254C116.214 88.254 122.238 83.994 124.152 80.982C123.258 80.514 121.95 79.584 121.95 79.584C121.95 79.584 114.384 82.656 112.92 84.108Z" fill="white"/>
    <path d="M110.532 83.7C110.532 83.7 108.54 84.132 107.538 86.904C106.962 81.378 109.584 80.868 109.584 80.868C109.584 80.868 110.37 80.304 111.852 80.538C109.866 81.594 110.532 83.7 110.532 83.7Z" fill="white"/>
    <path opacity="0.2" d="M116.269 73.17L115.279 73.776L113.629 75.528C114.091 76.578 114.091 77.556 113.785 78.378C115.663 77.646 117.565 76.176 118.063 74.586C118.069 74.574 118.069 74.562 118.075 74.55C118.405 73.494 117.223 72.594 116.269 73.17Z" fill="black"/>
    <path d="M119.418 58.848C121.23 64.8 122.118 67.278 120.384 71.496C117.774 77.838 110.298 79.104 106.8 73.896C103.65 69.21 101.22 60.258 105.87 55.548C110.454 50.91 117.606 52.89 119.418 58.848Z" fill="#B55B52"/>
    <path d="M111.3 64.236C111.474 64.728 111.366 65.238 111.06 65.37C110.754 65.502 110.364 65.208 110.196 64.716C110.022 64.224 110.13 63.714 110.436 63.582C110.742 63.45 111.126 63.738 111.3 64.236Z" fill="#263238"/>
    <path d="M105.59 66.798C105.764 67.29 105.656 67.8 105.35 67.932C105.044 68.064 104.654 67.77 104.486 67.278C104.312 66.786 104.42 66.276 104.726 66.144C105.026 66.012 105.416 66.306 105.59 66.798Z" fill="#263238"/>
    <path d="M104.869 66.114L103.627 66.258C103.627 66.252 104.527 66.93 104.869 66.114Z" fill="#263238"/>
    <path d="M107.269 66.516C107.269 66.516 107.227 68.982 106.711 70.38C107.539 70.722 108.493 69.99 108.493 69.99L107.269 66.516Z" fill="#A02724"/>
    <path d="M111.192 70.068C111.456 70.014 111.744 69.984 112.05 69.978C112.134 69.978 112.194 70.044 112.194 70.128C112.188 70.212 112.122 70.284 112.038 70.284C109.812 70.32 108.678 71.934 108.672 71.952C108.624 72.024 108.528 72.048 108.462 72C108.396 71.952 108.378 71.862 108.432 71.79C108.468 71.724 109.374 70.422 111.192 70.068Z" fill="#263238"/>
    <path d="M122.492 62.748C122.528 64.152 121.988 65.316 121.268 65.982C120.188 66.984 118.874 65.838 118.526 64.176C118.214 62.682 118.394 60.354 119.786 60.012C121.166 59.676 122.45 61.146 122.492 62.748Z" fill="#FFB573"/>
    <path d="M114.588 52.98C110.088 57.81 116.124 69.264 115.506 77.496C114.75 87.588 120.936 89.064 124.83 80.982C121.932 73.338 124.926 61.89 124.146 57.876C123.258 53.28 117.798 50.736 114.588 52.98Z" fill="#263238"/>
    <path d="M108.774 60.21C108.852 60.198 108.936 60.222 108.996 60.276C109.968 61.14 111.036 60.81 111.048 60.804C111.204 60.756 111.372 60.84 111.408 61.002C111.45 61.164 111.348 61.338 111.192 61.386C111.138 61.404 109.794 61.824 108.588 60.75C108.468 60.642 108.462 60.45 108.576 60.318C108.624 60.258 108.696 60.216 108.774 60.21Z" fill="#263238"/>
    <path d="M102.852 65.142C102.786 65.172 102.708 65.184 102.63 65.154C102.48 65.1 102.402 64.926 102.462 64.758C103.062 63.126 104.388 62.754 104.448 62.736C104.61 62.694 104.766 62.79 104.796 62.958C104.826 63.126 104.724 63.294 104.568 63.336C104.514 63.348 103.488 63.66 103.014 64.956C102.984 65.046 102.924 65.106 102.852 65.142Z" fill="#263238"/>
    <path d="M110.574 63.546L109.332 63.69C109.332 63.69 110.232 64.368 110.574 63.546Z" fill="#263238"/>
    <path d="M126.648 81.156C130.872 81.81 132.564 83.094 136.008 91.572C134.442 94.734 127.428 102.744 127.428 102.744C127.428 102.744 121.368 87.336 126.648 81.156Z" fill="#6648D8"/>
    <path d="M130.992 245.394C133.5 241.392 133.614 240.288 135.246 238.188C136.638 236.382 136.644 236.526 138.354 234.978C139.488 233.952 138.546 232.482 137.316 231.858C136.356 231.372 135.3 230.946 134.136 230.31L129.684 234.348C130.458 236.646 130.032 241.422 128.334 244.602C127.128 246.876 129.99 246.996 130.992 245.394Z" fill="#263238"/>
    <path d="M100.663 117.852C100.663 117.852 100.039 150.198 99.3247 172.266C99.1807 176.694 100.141 181.08 102.121 185.04C109.927 200.694 129.355 234.732 129.355 234.732C130.135 235.416 133.855 231.408 134.131 230.31C134.131 230.31 123.559 187.296 114.187 177.654C126.643 143.184 123.259 117.846 123.259 117.846H100.663V117.852Z" fill="#263238"/>
    <g opacity="0.2">
        <path d="M123.372 118.812L111.156 119.676C111.156 119.676 113.148 155.202 115.092 175.122C125.154 145.818 123.816 123.594 123.372 118.812Z" fill="black"/>
        <path d="M115.5 179.202C116.592 189.414 117.714 202.71 118.23 214.986C122.238 222.174 125.832 228.534 127.794 231.984C128.748 227.706 129.774 222.6 130.59 217.182C126.972 204.666 121.122 186.66 115.5 179.202Z" fill="black"/>
    </g>
    <path d="M126.973 233.058C127.411 233.61 128.191 234.6 128.743 235.35C128.923 235.602 129.265 235.65 129.517 235.476C131.413 234.156 133.921 231.438 134.737 230.532C134.899 230.352 134.923 230.094 134.809 229.884L133.537 227.622C133.363 227.316 132.949 227.238 132.685 227.472L127.051 232.284C126.817 232.482 126.781 232.818 126.973 233.058Z" fill="#6648D8"/>
    <path opacity="0.3" d="M126.973 233.058C127.411 233.61 128.191 234.6 128.743 235.35C128.923 235.602 129.265 235.65 129.517 235.476C131.413 234.156 133.921 231.438 134.737 230.532C134.899 230.352 134.923 230.094 134.809 229.884L133.537 227.622C133.363 227.316 132.949 227.238 132.685 227.472L127.051 232.284C126.817 232.482 126.781 232.818 126.973 233.058Z" fill="white"/>
    <path d="M114.841 249.738C119.647 249.738 121.477 249.666 124.183 249.576C126.499 249.492 127.027 249.78 128.887 249.738C130.441 249.702 130.519 248.22 130.195 246.51C130.033 245.652 129.757 244.602 129.553 243.216H122.257C121.093 245.106 116.821 246.528 114.079 246.888C111.475 247.236 112.927 249.738 114.841 249.738Z" fill="#263238"/>
    <path d="M107.443 117.852C107.443 117.852 114.991 159.39 117.757 178.218C120.661 197.988 124.237 230.082 122.269 243.216C123.337 243.87 127.285 243.912 129.565 243.216C129.565 243.216 139.615 200.094 131.461 179.088C136.939 132.816 128.839 130.41 126.595 117.846H107.443V117.852Z" fill="#263238"/>
    <path d="M121.962 240.48C121.878 241.14 121.716 242.298 121.464 243.18C121.374 243.498 121.56 243.792 121.878 243.846C124.512 244.272 128.43 243.654 129.678 243.432C129.918 243.39 130.11 243.204 130.17 242.97L130.8 240.444C130.884 240.096 130.644 239.79 130.296 239.796L122.568 239.946C122.262 239.946 121.998 240.18 121.962 240.48Z" fill="#6648D8"/>
    <path opacity="0.3" d="M121.962 240.48C121.878 241.14 121.716 242.298 121.464 243.18C121.374 243.498 121.56 243.792 121.878 243.846C124.512 244.272 128.43 243.654 129.678 243.432C129.918 243.39 130.11 243.204 130.17 242.97L130.8 240.444C130.884 240.096 130.644 239.79 130.296 239.796L122.568 239.946C122.262 239.946 121.998 240.18 121.962 240.48Z" fill="white"/>
    <path d="M114.506 52.068C119.612 59.46 105.488 56.808 102.434 63.75C102.446 56.802 103.022 51.438 114.506 52.068Z" fill="#263238"/>
    <path d="M126.594 117.852C119.148 119.424 103.626 123.036 100.662 117.852C102.576 116.526 122.292 116.766 126.594 117.852Z" fill="#6648D8"/>
    <path d="M108.805 121.92C108.313 121.92 107.851 121.908 107.431 121.89C102.583 121.632 101.197 120.144 101.137 120.084C101.077 120.018 101.083 119.916 101.149 119.85C101.215 119.79 101.323 119.796 101.383 119.862C101.395 119.874 102.763 121.314 107.449 121.56C112.189 121.812 122.809 120.498 126.049 118.98C126.133 118.944 126.229 118.98 126.265 119.058C126.301 119.142 126.265 119.238 126.187 119.274C123.133 120.708 114.067 121.92 108.805 121.92Z" fill="white"/>
    <path d="M107.029 133.644C106.903 133.644 106.753 133.602 106.579 133.482C104.155 131.79 106.459 123.516 107.737 121.26C107.773 121.2 107.845 121.164 107.917 121.182C107.989 121.2 108.037 121.26 108.043 121.332C108.133 122.49 108.907 132.66 107.311 133.572C107.245 133.608 107.149 133.644 107.029 133.644ZM107.761 121.938C106.495 124.686 104.767 131.814 106.765 133.212C106.969 133.356 107.083 133.32 107.149 133.278C108.175 132.696 108.085 126.39 107.761 121.938Z" fill="white"/>
    <path d="M109.567 131.682C109.465 131.682 109.339 131.658 109.201 131.604C106.429 130.512 107.029 123.702 107.725 121.296C107.743 121.23 107.809 121.182 107.875 121.176C107.929 121.176 108.013 121.218 108.037 121.284C108.367 122.208 111.223 130.32 109.993 131.514C109.909 131.598 109.771 131.682 109.567 131.682ZM107.905 121.902C107.263 124.692 107.017 130.386 109.321 131.298C109.621 131.418 109.729 131.31 109.765 131.28C110.545 130.524 109.141 125.442 107.905 121.902Z" fill="white"/>
    <path d="M105.236 127.662C105.158 127.662 105.086 127.602 105.074 127.524C104.786 125.682 106.562 121.596 107.834 121.188C107.918 121.158 108.014 121.206 108.038 121.296C108.068 121.38 108.02 121.476 107.93 121.5C106.814 121.86 105.134 125.826 105.392 127.476C105.404 127.566 105.344 127.65 105.254 127.662C105.254 127.662 105.242 127.662 105.236 127.662Z" fill="white"/>
</svg>
