<svg width="12" height="12" viewBox="0 0 12 12" fill="none" xmlns="http://www.w3.org/2000/svg">
    <path d="M8.75 8.55C8.65 8.45 8.6 8.32778 8.6 8.18333C8.6 8.03889 8.65 7.92222 8.75 7.83333L10.0833 6.5H4.75C4.60556 6.5 4.48611 6.45278 4.39167 6.35833C4.29722 6.26389 4.25 6.14444 4.25 6C4.25 5.85556 4.29722 5.73611 4.39167 5.64167C4.48611 5.54722 4.60556 5.5 4.75 5.5H10.05L8.7 4.15C8.61111 4.06111 8.56667 3.94722 8.56667 3.80833C8.56667 3.66944 8.61667 3.55 8.71667 3.45C8.81667 3.35 8.93611 3.3 9.075 3.3C9.21389 3.3 9.33333 3.35 9.43333 3.45L11.65 5.66667C11.7056 5.72222 11.7444 5.77778 11.7667 5.83333C11.7889 5.88889 11.8 5.95 11.8 6.01667C11.8 6.08333 11.7889 6.14444 11.7667 6.2C11.7444 6.25556 11.7056 6.31111 11.65 6.36667L9.45 8.56667C9.36111 8.65556 9.24722 8.7 9.10833 8.7C8.96944 8.7 8.85 8.65 8.75 8.55ZM1 12C0.733333 12 0.5 11.9 0.3 11.7C0.1 11.5 0 11.2667 0 11V1C0 0.733333 0.1 0.5 0.3 0.3C0.5 0.1 0.733333 0 1 0H5.35C5.49444 0 5.61389 0.0472223 5.70833 0.141667C5.80278 0.236111 5.85 0.355556 5.85 0.5C5.85 0.644444 5.80278 0.763889 5.70833 0.858333C5.61389 0.952778 5.49444 1 5.35 1H1V11H5.35C5.49444 11 5.61389 11.0472 5.70833 11.1417C5.80278 11.2361 5.85 11.3556 5.85 11.5C5.85 11.6444 5.80278 11.7639 5.70833 11.8583C5.61389 11.9528 5.49444 12 5.35 12H1Z" fill="#4C4C4C"/>
</svg>