<svg width="13" height="11" viewBox="0 0 13 11" fill="none" xmlns="http://www.w3.org/2000/svg">
    <path d="M3.5625 5.46875C3.65625 5.5625 3.70312 5.67187 3.70312 5.79687C3.70312 5.92187 3.65625 6.03125 3.5625 6.125L2.03125 7.65625L11.7031 7.65625C11.8385 7.65625 11.9505 7.70052 12.0391 7.78906C12.1276 7.8776 12.1719 7.98958 12.1719 8.125C12.1719 8.26042 12.1276 8.3724 12.0391 8.46094C11.9505 8.54948 11.8385 8.59375 11.7031 8.59375L2.03125 8.59375L3.59375 10.1562C3.67708 10.2396 3.71875 10.3437 3.71875 10.4687C3.71875 10.5937 3.67188 10.7031 3.57813 10.7969C3.48438 10.8906 3.375 10.9375 3.25 10.9375C3.125 10.9375 3.01562 10.8906 2.92187 10.7969L0.578123 8.45312C0.52604 8.40104 0.489582 8.34896 0.468749 8.29687C0.447915 8.24479 0.437498 8.1875 0.437498 8.125C0.437498 8.0625 0.447915 8.00521 0.468749 7.95312C0.489582 7.90104 0.52604 7.84896 0.578123 7.79687L2.92187 5.45312C3.00521 5.36979 3.10937 5.32812 3.23437 5.32812C3.35937 5.32812 3.46875 5.375 3.5625 5.46875ZM10.0938 0.203123L12.4219 2.53125C12.474 2.58333 12.5104 2.63542 12.5313 2.6875C12.5521 2.73958 12.5625 2.79687 12.5625 2.85937C12.5625 2.92187 12.5521 2.97917 12.5313 3.03125C12.5104 3.08333 12.474 3.13542 12.4219 3.1875L10.0625 5.54687C9.97917 5.63021 9.875 5.67187 9.75 5.67187C9.625 5.67187 9.51563 5.625 9.42188 5.53125C9.32813 5.4375 9.28125 5.32812 9.28125 5.20312C9.28125 5.07812 9.32813 4.96875 9.42188 4.875L10.9688 3.32812L1.29687 3.32812C1.16146 3.32812 1.04948 3.28385 0.960937 3.19531C0.872395 3.10677 0.828124 2.99479 0.828124 2.85937C0.828124 2.72396 0.872395 2.61198 0.960937 2.52344C1.04948 2.43489 1.16146 2.39062 1.29687 2.39062L10.9688 2.39062L9.42188 0.843748C9.33854 0.760415 9.29688 0.656248 9.29688 0.531248C9.29688 0.406248 9.34375 0.296873 9.4375 0.203123C9.53125 0.109373 9.64063 0.0624978 9.76563 0.0624978C9.89063 0.0624979 10 0.109373 10.0938 0.203123Z" fill="#4B4B4B"/>
</svg>
