<svg width="126" height="68" viewBox="0 0 126 68" fill="none" xmlns="http://www.w3.org/2000/svg">
<path d="M4.43901 61.3054C4.40797 61.3675 4.34589 61.4295 4.2838 61.4606C4.22172 61.4916 4.15964 61.5227 4.09755 61.5227C4.03547 61.5227 3.94234 61.5227 3.84922 61.4606C3.75609 61.3985 3.66296 61.3675 3.56984 61.3054C3.44567 61.2433 3.3215 61.1812 3.19733 61.1502C3.04212 61.0881 2.88691 61.0881 2.70066 61.0881C2.3592 61.0881 2.11086 61.1502 1.92461 61.3054C1.73836 61.4606 1.67627 61.6468 1.67627 61.8952C1.67627 62.1435 1.73836 62.1746 1.83148 62.2987C1.92461 62.3918 2.04878 62.485 2.20399 62.5781C2.3592 62.6402 2.54545 62.7333 2.7317 62.7954C2.91795 62.8575 3.13525 62.9196 3.3215 62.9816C3.53879 63.0437 3.72505 63.1369 3.9113 63.23C4.09755 63.3231 4.2838 63.4473 4.43901 63.6025C4.59423 63.7577 4.71839 63.9129 4.81152 64.1302C4.90464 64.3475 4.96673 64.5958 4.96673 64.9063C4.96673 65.2167 4.90465 65.5271 4.78048 65.8375C4.65631 66.1169 4.5011 66.3652 4.2838 66.5825C4.06651 66.7998 3.81817 66.955 3.47671 67.0792C3.16629 67.2034 2.79379 67.2655 2.42128 67.2655C2.04878 67.2655 1.95565 67.2654 1.73836 67.2034C1.52106 67.1723 1.30377 67.0792 1.08647 67.0171C0.869178 66.924 0.682926 66.8309 0.496674 66.7067C0.310421 66.5825 0.15521 66.4584 0 66.3342L0.434589 65.6202C0.465631 65.5581 0.527715 65.5271 0.5898 65.4961C0.651884 65.465 0.713967 65.434 0.776051 65.434C0.838136 65.434 0.962304 65.465 1.05543 65.5271C1.14856 65.5892 1.27272 65.6513 1.39689 65.7444C1.52106 65.8375 1.67627 65.8996 1.83148 65.9617C1.98669 66.0238 2.20399 66.0548 2.45232 66.0548C2.79379 66.0548 3.07316 65.9617 3.25942 65.8065C3.44567 65.6513 3.53879 65.4029 3.53879 65.0925C3.53879 64.7821 3.47671 64.751 3.38358 64.6579C3.29046 64.5337 3.16629 64.4406 3.01108 64.3785C2.85587 64.3165 2.70066 64.2233 2.48336 64.1923C2.29711 64.1302 2.07982 64.0681 1.89357 64.006C1.67627 63.944 1.49002 63.8508 1.30377 63.7577C1.11751 63.6646 0.931262 63.5404 0.776051 63.3852C0.620841 63.23 0.496674 63.0437 0.403548 62.8264C0.310422 62.6091 0.248337 62.3298 0.248337 61.9883C0.248337 61.6468 0.310422 61.4606 0.403548 61.2123C0.496674 60.9639 0.651884 60.7466 0.869179 60.5293C1.08647 60.3431 1.33481 60.1879 1.61419 60.0637C1.92461 59.9395 2.26607 59.8774 2.63857 59.8774C3.01108 59.8774 3.47671 59.9395 3.84922 60.0637C4.22172 60.1879 4.53214 60.3741 4.78048 60.6224L4.40797 61.3054H4.43901Z" fill="white"/>
<path d="M11.9512 67.1107H10.4612V59.9399H11.9512V67.1107Z" fill="white"/>
<path d="M25.7959 59.9088V67.0795H24.4921V62.6715C24.4921 62.5784 24.4921 62.4853 24.4921 62.3611C24.4921 62.2369 24.4921 62.1438 24.4921 62.0507L22.4433 65.9309C22.3192 66.1482 22.1639 66.2413 21.9156 66.2413H21.6983C21.5741 66.2413 21.481 66.2413 21.3879 66.1482C21.2948 66.0861 21.2327 66.0241 21.1706 65.8999L19.1218 61.9886C19.1218 62.1128 19.1218 62.2059 19.1218 62.33C19.1218 62.4232 19.1218 62.5473 19.1218 62.6405V67.0484H17.8181V59.8777H18.9356C18.9977 59.8777 19.0597 59.8777 19.0908 59.8777C19.1529 59.8777 19.1839 59.8777 19.2149 59.8777C19.246 59.8777 19.277 59.9088 19.3081 59.9398C19.3391 59.9708 19.3702 60.0019 19.4012 60.064L21.4189 63.8821C21.481 64.0063 21.5431 64.1305 21.6052 64.2236C21.6673 64.3478 21.6983 64.4719 21.7604 64.5961C21.8225 64.4719 21.8535 64.3478 21.9156 64.2236C21.9777 64.0994 22.0398 63.9753 22.1019 63.8511L24.0885 60.0329C24.0885 59.9708 24.1506 59.9398 24.1817 59.9088C24.2127 59.8777 24.2438 59.8467 24.2748 59.8467C24.3058 59.8467 24.3679 59.8467 24.399 59.8467C24.43 59.8467 24.4921 59.8467 24.5852 59.8467H25.7027L25.7959 59.9088Z" fill="white"/>
<path d="M34.1776 59.9087C34.6743 59.9087 35.0779 59.9708 35.4504 60.0949C35.8229 60.2191 36.1022 60.3743 36.3195 60.5916C36.5368 60.8089 36.7231 61.0572 36.8162 61.3366C36.9404 61.616 36.9714 61.9264 36.9714 62.2679C36.9714 62.6094 36.9093 62.9508 36.7852 63.2302C36.661 63.5096 36.5058 63.789 36.2575 63.9752C36.0091 64.1925 35.7297 64.3477 35.3572 64.4719C35.0158 64.596 34.5812 64.6581 34.1156 64.6581H33.1843V67.1105H31.6943V59.9397H34.1156L34.1776 59.9087ZM34.1776 63.4785C34.6433 63.4785 34.9847 63.3544 35.202 63.1371C35.4193 62.9198 35.5124 62.6094 35.5124 62.2058C35.5124 61.8023 35.5124 61.8643 35.4193 61.7091C35.3572 61.5539 35.2952 61.4298 35.171 61.3366C35.0468 61.2435 34.9227 61.1504 34.7674 61.0883C34.6122 61.0262 34.3949 60.9952 34.1776 60.9952H33.2464V63.4475H34.1776V63.4785Z" fill="white"/>
<path d="M46.6563 65.9V67.1107H42.4036V59.9399H43.8936V65.9H46.6563Z" fill="white"/>
<path d="M54.3238 64.3479V67.1107H52.8337V64.3479L50.2262 59.9399H51.53C51.6541 59.9399 51.7473 59.9399 51.8404 60.0331C51.9025 60.0952 51.9646 60.1572 52.0266 60.2814L53.2062 62.5475C53.2994 62.7027 53.3614 62.8269 53.4235 62.9821C53.4856 63.1062 53.5477 63.2304 53.6098 63.3856C53.6408 63.2614 53.7029 63.1062 53.765 62.9821C53.8271 62.8579 53.8892 62.7027 53.9823 62.5475L55.1619 60.2814C55.1929 60.1883 55.255 60.1262 55.3481 60.0641C55.4413 60.002 55.5344 59.971 55.6586 59.971H56.9623L54.3548 64.379L54.3238 64.3479Z" fill="white"/>
<path d="M73.1971 61.1193H71.0863V67.1105H69.5963V61.1193H67.4854V59.9087H73.1661V61.1193H73.1971Z" fill="white"/>
<path d="M84.2483 67.1107H82.9135C82.6651 67.1107 82.4789 67.0175 82.3547 66.8313L80.9889 64.6273C80.9268 64.5342 80.8647 64.4721 80.8026 64.441C80.7405 64.41 80.6474 64.379 80.4922 64.379H79.9955V67.1107H78.5055V59.9399H80.7716C81.2682 59.9399 81.7028 60.002 82.0443 60.0952C82.3857 60.1883 82.6962 60.3435 82.9135 60.5297C83.1308 60.716 83.317 60.9333 83.4101 61.1816C83.5033 61.43 83.5653 61.7093 83.5653 62.0198C83.5653 62.3302 83.5343 62.4854 83.4722 62.7027C83.4101 62.92 83.317 63.1062 83.1928 63.2925C83.0687 63.4787 82.9135 63.6339 82.7272 63.7581C82.541 63.8823 82.3237 64.0064 82.0753 64.0996C82.1685 64.1617 82.2616 64.2237 82.3547 64.2858C82.4478 64.3479 82.5099 64.441 82.572 64.5652L84.2483 67.1417V67.1107ZM80.7716 63.3235C81.0199 63.3235 81.2061 63.3235 81.3924 63.2304C81.5787 63.1373 81.7028 63.0752 81.827 62.9821C81.9512 62.8889 82.0132 62.7337 82.0753 62.6096C82.1374 62.4543 82.1685 62.2991 82.1685 62.1439C82.1685 61.8025 82.0443 61.5541 81.827 61.3368C81.6097 61.1506 81.2682 61.0575 80.8026 61.0575H80.0266V63.3235H80.8026H80.7716Z" fill="white"/>
<path d="M95.6717 67.1105H94.5231C94.3989 67.1105 94.3058 67.1104 94.2127 67.0173C94.1196 66.9552 94.0575 66.8621 94.0264 66.769L93.5298 65.4031H90.6739L90.1772 66.769C90.1462 66.8621 90.0841 66.9242 89.991 66.9863C89.8978 67.0484 89.8047 67.0794 89.6805 67.0794H88.532L91.3258 59.9087H92.8468L95.6406 67.0794L95.6717 67.1105ZM93.1883 64.3788L92.4122 62.1748C92.3812 62.0506 92.3191 61.9264 92.257 61.7712C92.1949 61.616 92.1639 61.4608 92.1018 61.2745C92.0708 61.4608 92.0087 61.616 91.9466 61.8023C91.8845 61.9885 91.8535 62.0816 91.7914 62.2058L91.0153 64.3788H93.1573H93.1883Z" fill="white"/>
<path d="M106.505 59.9087L103.618 67.0794H102.284L99.3967 59.9087H100.607C100.732 59.9087 100.856 59.9087 100.918 60.0018C101.011 60.0639 101.073 60.126 101.104 60.2502L102.656 64.3787C102.718 64.534 102.78 64.6892 102.842 64.8754C102.904 65.0617 102.967 65.2479 102.998 65.4652C103.029 65.2479 103.091 65.0617 103.153 64.8754C103.215 64.6892 103.246 64.534 103.308 64.3787L104.86 60.2502C104.891 60.157 104.953 60.0949 105.046 60.0329C105.14 59.9708 105.233 59.9397 105.357 59.9397H106.567L106.505 59.9087Z" fill="white"/>
<path d="M113.087 61.0883V62.9198H115.477V64.0373H113.087V65.9308H116.16V67.0794H111.597V59.9087H116.16V61.0573H113.087V61.0883Z" fill="white"/>
<path d="M126 65.9V67.1107H121.747V59.9399H123.237V65.9H126Z" fill="white"/>
<path d="M55.6513 24.9535C54.8813 26.5705 54.1113 27.9719 53.5261 29.4349C52.1247 32.9615 50.8157 36.5189 49.4605 40.0609C49.2911 40.4921 49.1217 40.9233 48.9061 41.3237C48.3055 42.4017 47.3507 42.7559 46.1957 42.3555C43.2851 41.3699 42.0377 39.4449 42.4535 36.3649C43.3159 29.9431 44.2245 23.5213 45.1331 17.0995C45.2717 16.1601 45.0407 15.4825 44.2861 14.8665C42.0069 13.0031 39.7893 11.0935 37.5717 9.15309C35.9239 7.70549 34.7997 5.88829 34.1529 3.80929C33.6139 2.06909 34.5379 0.513687 36.3243 0.128687C38.2339 -0.287113 39.9741 0.344288 41.4217 1.45309C44.0243 3.42429 46.5499 5.51869 48.9985 7.69009C50.0303 8.61409 50.9543 8.84509 52.2325 8.35229C57.4685 6.35029 62.7199 4.40989 67.9713 2.45409C68.9107 2.09989 69.8809 1.79189 70.8511 1.53009C71.8059 1.28369 72.6991 1.48389 73.3921 2.19229C74.1005 2.90069 74.8089 3.63989 75.3941 4.44069C76.1487 5.47249 76.0409 6.55049 75.1015 7.41289C74.4085 8.05969 73.6231 8.59869 72.8377 9.13769C70.0195 11.0935 67.1705 12.9877 64.3677 14.9743C63.3975 15.6519 62.5659 16.5143 61.6727 17.3151C61.2569 17.6847 61.2569 18.0081 61.7189 18.4393C63.9981 20.5645 66.2465 22.7359 68.4949 24.9073C68.8953 25.3077 69.2341 25.3077 69.7115 25.0613C70.6355 24.5685 71.5749 24.1219 72.5143 23.7061C73.8387 23.1209 74.7627 23.3057 75.7791 24.3067C77.8735 26.3703 77.8889 26.6629 76.0871 28.9575C73.7617 31.9143 71.4517 34.8865 69.1263 37.8587C69.0493 37.9511 68.9723 38.0589 68.8953 38.1513C67.7249 39.6143 66.7393 40.0455 65.5535 39.5681C64.1367 38.9983 63.0895 37.3659 63.3051 35.8105C63.4591 34.6093 63.7979 33.4235 64.0135 32.2223C64.0597 31.9451 64.0135 31.4831 63.8287 31.3445C61.1953 29.2501 58.5311 27.2019 55.6667 24.9689L55.6513 24.9535Z" fill="white"/>
<path d="M58.9159 18.0696C59.6089 17.1764 60.1017 16.237 60.8409 15.6056C62.5657 14.158 64.3983 12.8028 66.2309 11.4938C68.6025 9.79977 71.005 8.16737 73.4227 6.55037C74.0849 6.10377 74.1311 5.70337 73.6383 5.07197C72.0675 3.03917 71.7133 2.91597 69.3109 3.80917C69.2031 3.85537 69.08 3.90157 68.9721 3.94777C63.4436 6.02677 57.8996 8.07497 52.371 10.1694C50.7232 10.8008 49.3218 10.5698 47.982 9.33777C45.8876 7.41277 43.7469 5.51857 41.5293 3.74757C40.5437 2.96217 39.3272 2.45397 38.1568 1.97657C37.4638 1.69937 36.5398 1.37597 35.9392 2.14597C35.3386 2.91597 35.8468 3.73217 36.201 4.47137C37.0942 6.30397 38.4648 7.72077 40.0048 9.01437C41.9298 10.6314 43.8086 12.2792 45.7336 13.9116C46.6114 14.6662 47.0733 15.5902 46.9193 16.7452C46.3034 21.319 45.6412 25.8928 45.0252 30.482C44.7018 32.8382 44.3938 35.2098 44.1936 37.5814C44.0703 38.9674 44.7942 39.9684 46.0878 40.5382C47.1812 41.0156 47.3814 41.0002 47.7972 39.8914C49.3064 35.949 50.7078 31.9604 52.294 28.0488C53.0486 26.17 54.142 24.4298 55.0814 22.6126C55.4048 22.7666 55.5279 22.7974 55.6203 22.859C58.8697 25.3538 62.1345 27.8486 65.3839 30.3588C65.9383 30.79 66 31.3598 65.8306 32.022C65.5688 33.023 65.2607 34.024 65.1068 35.0558C65.0143 35.641 65.0451 36.3032 65.2299 36.8576C65.6457 38.105 66.7546 38.259 67.5862 37.2272C68.0943 36.6112 68.5872 35.9798 69.0646 35.3484C71.1128 32.5918 73.1455 29.8506 75.1784 27.0786C75.3324 26.8784 75.5172 26.5704 75.471 26.3548C75.3016 25.5078 73.7462 24.7686 72.9608 25.1536C71.8828 25.6772 70.8202 26.2008 69.7576 26.7706C69.003 27.171 68.3869 27.0786 67.7709 26.4626C66.7699 25.4616 65.7227 24.5222 64.7063 23.552C62.8121 21.7656 60.9333 19.9792 58.9313 18.1004L58.9159 18.0696Z" fill="white"/>
<path d="M78.2898 32.8467L86.7898 39.3467" stroke="white" stroke-width="1.2" stroke-linecap="round"/>
<path d="M88.2898 40.8467L90.7898 42.8467" stroke="white" stroke-width="1.2" stroke-linecap="round"/>
<path d="M72.2898 39.8467L80.7898 46.3467" stroke="white" stroke-width="1.2" stroke-linecap="round"/>
<path d="M82.2898 47.8467L84.7898 49.8467" stroke="white" stroke-width="1.2" stroke-linecap="round"/>
<path d="M74.2898 35.8467L91.2898 48.3467" stroke="white" stroke-width="1.2" stroke-linecap="round"/>
</svg>
