<svg width="17" height="15" viewBox="0 0 17 15" fill="none" xmlns="http://www.w3.org/2000/svg">
    <path d="M0.979297 14.8823C0.623047 14.8823 0.352561 14.7239 0.167839 14.4073C-0.0168837 14.0906 -0.0168837 13.7739 0.167839 13.4573L7.68867 0.493738C7.87339 0.177071 8.14388 0.0187378 8.50013 0.0187378C8.85638 0.0187378 9.12687 0.177071 9.31159 0.493738L16.8324 13.4573C17.0171 13.7739 17.0171 14.0906 16.8324 14.4073C16.6477 14.7239 16.3772 14.8823 16.021 14.8823H0.979297ZM8.5793 5.83749C8.40777 5.83749 8.26593 5.89356 8.15378 6.00572C8.04162 6.11787 7.98555 6.25971 7.98555 6.43124V9.51874C7.98555 9.69026 8.04162 9.8321 8.15378 9.94426C8.26593 10.0564 8.40777 10.1125 8.5793 10.1125C8.75082 10.1125 8.89266 10.0564 9.00482 9.94426C9.11697 9.8321 9.17305 9.69026 9.17305 9.51874V6.43124C9.17305 6.25971 9.11697 6.11787 9.00482 6.00572C8.89266 5.89356 8.75082 5.83749 8.5793 5.83749ZM8.5793 12.2698C8.76402 12.2698 8.92235 12.2005 9.0543 12.062C9.18624 11.9234 9.25221 11.7684 9.25221 11.5969C9.25221 11.4121 9.18294 11.2571 9.0444 11.1318C8.90586 11.0064 8.75082 10.9437 8.5793 10.9437C8.39457 10.9437 8.23624 11.0097 8.1043 11.1417C7.97235 11.2736 7.90638 11.4253 7.90638 11.5969C7.90638 11.7816 7.97565 11.9399 8.11419 12.0719C8.25273 12.2038 8.40777 12.2698 8.5793 12.2698ZM2.22617 13.2198H14.7741L8.50013 2.37395L2.22617 13.2198Z" fill="#333333"/>
</svg>