<svg width="13" height="14" viewBox="0 0 13 14" fill="inherit" xmlns="http://www.w3.org/2000/svg">
    <circle cx="6.5" cy="7.24609" r="6.5" fill="#C4C4C4"/>
    <path d="M6.4999 7.72734L4.09365 10.1336C4.0249 10.2023 3.94469 10.2367 3.85303 10.2367C3.76136 10.2367 3.68115 10.2023 3.6124 10.1336C3.54365 10.0648 3.50928 9.98463 3.50928 9.89296C3.50928 9.80129 3.54365 9.72109 3.6124 9.65234L6.01865 7.24609L3.6124 4.83984C3.54365 4.77109 3.50928 4.69088 3.50928 4.59921C3.50928 4.50755 3.54365 4.42734 3.6124 4.35859C3.68115 4.28984 3.76136 4.25546 3.85303 4.25546C3.94469 4.25546 4.0249 4.28984 4.09365 4.35859L6.4999 6.76484L8.90615 4.35859C8.9749 4.28984 9.05511 4.25546 9.14678 4.25546C9.23844 4.25546 9.31865 4.28984 9.3874 4.35859C9.45615 4.42734 9.49053 4.50755 9.49053 4.59921C9.49053 4.69088 9.45615 4.77109 9.3874 4.83984L6.98115 7.24609L9.3874 9.65234C9.45615 9.72109 9.49053 9.80129 9.49053 9.89296C9.49053 9.98463 9.45615 10.0648 9.3874 10.1336C9.31865 10.2023 9.23844 10.2367 9.14678 10.2367C9.05511 10.2367 8.9749 10.2023 8.90615 10.1336L6.4999 7.72734Z" fill="#F8F8F8"/>
</svg>
