<svg width="15" height="15" viewBox="0 0 15 15" fill="inherit" xmlns="http://www.w3.org/2000/svg">
    <path d="M7.5 8.59375L2.03125 14.0625C1.875 14.2187 1.69271 14.2969 1.48438 14.2969C1.27604 14.2969 1.09375 14.2187 0.9375 14.0625C0.78125 13.9062 0.703125 13.724 0.703125 13.5156C0.703125 13.3073 0.78125 13.125 0.9375 12.9687L6.40625 7.5L0.9375 2.03125C0.78125 1.875 0.703125 1.69271 0.703125 1.48438C0.703125 1.27604 0.78125 1.09375 0.9375 0.9375C1.09375 0.78125 1.27604 0.703125 1.48438 0.703125C1.69271 0.703125 1.875 0.78125 2.03125 0.9375L7.5 6.40625L12.9687 0.9375C13.125 0.78125 13.3073 0.703125 13.5156 0.703125C13.724 0.703125 13.9062 0.78125 14.0625 0.9375C14.2187 1.09375 14.2969 1.27604 14.2969 1.48438C14.2969 1.69271 14.2187 1.875 14.0625 2.03125L8.59375 7.5L14.0625 12.9687C14.2187 13.125 14.2969 13.3073 14.2969 13.5156C14.2969 13.724 14.2187 13.9062 14.0625 14.0625C13.9062 14.2187 13.724 14.2969 13.5156 14.2969C13.3073 14.2969 13.125 14.2187 12.9687 14.0625L7.5 8.59375Z" fill="#4C4C4C"/>
</svg>
