<svg width="280" height="280" viewBox="0 0 280 280" fill="none" xmlns="http://www.w3.org/2000/svg">
<path d="M280 214.143H0V214.283H280V214.143Z" fill="#EBEBEB"/>
<path d="M243.974 223.157H233.396V223.297H243.974V223.157Z" fill="#EBEBEB"/>
<path d="M180.614 222.18H164.109V222.32H180.614V222.18Z" fill="#EBEBEB"/>
<path d="M232.835 217.956H206.453V218.096H232.835V217.956Z" fill="#EBEBEB"/>
<path d="M35.5207 218.897H29.377V219.037H35.5207V218.897Z" fill="#EBEBEB"/>
<path d="M62.0967 218.897H40.5059V219.037H62.0967V218.897Z" fill="#EBEBEB"/>
<path d="M126.082 221.262H95.7598V221.402H126.082V221.262Z" fill="#EBEBEB"/>
<path d="M132.728 189.168H24.593C22.8306 189.168 21.3965 187.734 21.3965 185.972V33.9696C21.3965 32.2073 22.8306 30.7731 24.593 30.7731H132.728C134.49 30.7731 135.924 32.2073 135.924 33.9696V185.972C135.924 187.734 134.49 189.168 132.728 189.168ZM24.593 30.9137C22.9074 30.9137 21.5365 32.2846 21.5365 33.9702V185.972C21.5365 187.658 22.9074 189.029 24.593 189.029H132.728C134.413 189.029 135.784 187.658 135.784 185.972V33.9696C135.784 32.2846 134.413 30.9131 132.728 30.9131H24.593V30.9137Z" fill="#EBEBEB"/>
<path d="M253.854 189.168H145.719C143.957 189.168 142.523 187.734 142.523 185.972V33.9696C142.523 32.2073 143.958 30.7731 145.719 30.7731H253.854C255.617 30.7731 257.051 32.2073 257.051 33.9696V185.972C257.051 187.734 255.617 189.168 253.854 189.168ZM145.719 30.9137C144.034 30.9137 142.663 32.2846 142.663 33.9702V185.972C142.663 187.658 144.034 189.029 145.719 189.029H253.854C255.54 189.029 256.911 187.658 256.911 185.972V33.9696C256.911 32.2846 255.54 30.9131 253.854 30.9131H145.719V30.9137Z" fill="#EBEBEB"/>
<path d="M166.185 42.1882L165.711 43.1475C165.656 43.2606 165.548 43.3384 165.423 43.3569L164.365 43.5109C164.051 43.5562 163.926 43.9421 164.153 44.1633L164.919 44.9098C165.009 44.9977 165.05 45.1242 165.029 45.2486L164.848 46.3025C164.795 46.615 165.123 46.8535 165.403 46.7057L166.35 46.2078C166.462 46.149 166.595 46.149 166.706 46.2078L167.653 46.7057C167.934 46.853 168.262 46.615 168.208 46.3025L168.027 45.2486C168.006 45.1242 168.047 44.9977 168.138 44.9098L168.904 44.1633C169.131 43.9421 169.006 43.5562 168.692 43.5109L167.633 43.3569C167.508 43.339 167.401 43.2606 167.345 43.1475L166.872 42.1882C166.731 41.9037 166.325 41.9037 166.185 42.1882Z" fill="#F5F5F5"/>
<path d="M240.328 171.594L239.612 172.123C239.527 172.185 239.418 172.202 239.319 172.168L238.477 171.879C238.227 171.792 237.988 172.03 238.071 172.281L238.353 173.125C238.386 173.224 238.368 173.334 238.306 173.417L237.77 174.129C237.611 174.339 237.763 174.641 238.027 174.639L238.917 174.632C239.022 174.631 239.121 174.681 239.181 174.767L239.692 175.496C239.843 175.712 240.177 175.661 240.256 175.409L240.524 174.56C240.556 174.461 240.635 174.382 240.735 174.352L241.586 174.092C241.839 174.014 241.893 173.681 241.678 173.528L240.953 173.01C240.868 172.949 240.818 172.851 240.82 172.745L240.836 171.855C240.84 171.592 240.54 171.437 240.328 171.594Z" fill="#F0F0F0"/>
<path d="M235.406 49.6737L235.171 50.717C235.144 50.8396 235.057 50.941 234.94 50.988L233.948 51.3862C233.653 51.5043 233.622 51.9086 233.894 52.0705L234.814 52.6165C234.922 52.6809 234.992 52.794 235 52.92L235.072 53.9874C235.093 54.3038 235.468 54.4583 235.706 54.2494L236.51 53.5433C236.605 53.4604 236.734 53.429 236.856 53.4598L237.893 53.7214C238.201 53.7992 238.464 53.4901 238.338 53.1989L237.915 52.2166C237.865 52.1013 237.875 51.968 237.943 51.8616L238.512 50.9561C238.681 50.6878 238.468 50.3423 238.153 50.3714L237.087 50.47C236.962 50.4818 236.839 50.4308 236.758 50.3339L236.073 49.5124C235.87 49.2694 235.476 49.3646 235.406 49.6737Z" fill="#F5F5F5"/>
<path d="M51.6111 86.6919L51.1626 87.1472C51.1099 87.201 51.0338 87.225 50.9598 87.2116L50.3304 87.1002C50.1439 87.0671 50 87.2626 50.0874 87.4306L50.3819 87.9978C50.4166 88.0645 50.4161 88.144 50.3808 88.2106L50.0801 88.7746C49.991 88.942 50.1322 89.1386 50.3192 89.1078L50.9498 89.003C51.0242 88.9907 51.0998 89.0159 51.1519 89.0697L51.5954 89.53C51.727 89.6666 51.9578 89.5927 51.9863 89.4057L52.0821 88.7734C52.0933 88.699 52.1403 88.6351 52.2081 88.6021L52.7832 88.3226C52.9534 88.2398 52.9551 87.9973 52.7854 87.9127L52.2137 87.6266C52.1465 87.593 52.1 87.528 52.0894 87.4535L52.0009 86.8202C51.9746 86.6331 51.7444 86.557 51.6111 86.6919Z" fill="#F5F5F5"/>
<path d="M219.434 165.592L219.151 166.165C219.118 166.233 219.054 166.28 218.979 166.29L218.346 166.382C218.159 166.41 218.084 166.64 218.22 166.772L218.677 167.219C218.731 167.271 218.756 167.347 218.743 167.422L218.635 168.052C218.603 168.239 218.799 168.381 218.967 168.293L219.533 167.996C219.599 167.961 219.679 167.961 219.745 167.996L220.311 168.293C220.479 168.381 220.675 168.239 220.643 168.052L220.535 167.422C220.522 167.347 220.547 167.271 220.601 167.219L221.059 166.772C221.194 166.64 221.12 166.41 220.932 166.382L220.299 166.29C220.225 166.28 220.16 166.233 220.127 166.165L219.844 165.592C219.76 165.422 219.517 165.422 219.434 165.592Z" fill="#F5F5F5"/>
<path d="M76.9135 42.2514L76.8446 42.887C76.8362 42.9621 76.792 43.0282 76.7259 43.0634L76.1631 43.367C75.9962 43.4571 76.0052 43.699 76.1777 43.7769L76.7606 44.039C76.8295 44.0698 76.8782 44.1325 76.8917 44.2064L77.0065 44.8353C77.0406 45.0218 77.2736 45.0884 77.4007 44.9478L77.8302 44.4741C77.8806 44.4181 77.9557 44.3912 78.0301 44.4013L78.6635 44.4864C78.8511 44.5116 78.9866 44.3106 78.8925 44.1459L78.575 43.591C78.5375 43.5254 78.5347 43.4459 78.5672 43.3782L78.8444 42.8019C78.9267 42.6311 78.7772 42.4402 78.5913 42.4788L77.9657 42.6093C77.8918 42.6244 77.8157 42.6026 77.7613 42.551L77.2988 42.1098C77.1621 41.9798 76.9342 42.0633 76.9135 42.2514Z" fill="#EBEBEB"/>
<path d="M59.5158 173.144L59.648 174.242C59.6637 174.372 59.6144 174.5 59.5169 174.587L58.687 175.318C58.4412 175.535 58.5504 175.94 58.8724 176.004L59.9582 176.217C60.0859 176.243 60.1934 176.329 60.2449 176.449L60.684 177.464C60.8145 177.765 61.2333 177.786 61.3929 177.5L61.9317 176.533C61.9949 176.42 62.1103 176.344 62.2402 176.332L63.3417 176.228C63.6682 176.197 63.8177 175.805 63.5949 175.565L62.8422 174.754C62.7537 174.658 62.7179 174.526 62.7459 174.399L62.9873 173.319C63.0589 172.999 62.7325 172.735 62.4345 172.873L61.4305 173.338C61.3123 173.393 61.1745 173.386 61.0625 173.319L60.11 172.756C59.8283 172.589 59.4766 172.818 59.5158 173.144Z" fill="#EBEBEB"/>
<path d="M108.381 55.9356C108.381 56.3461 108.713 56.6787 109.124 56.6787C109.534 56.6787 109.867 56.3461 109.867 55.9356C109.867 55.5251 109.534 55.1925 109.124 55.1925C108.713 55.1925 108.381 55.5251 108.381 55.9356Z" fill="#F0F0F0"/>
<path d="M84.7285 200.294C84.7285 200.704 85.0612 201.037 85.4716 201.037C85.8821 201.037 86.2148 200.704 86.2148 200.294C86.2148 199.883 85.8821 199.55 85.4716 199.55C85.0612 199.55 84.7285 199.883 84.7285 200.294Z" fill="#F5F5F5"/>
<path d="M99.4941 42.5141C99.4941 44.016 100.712 45.234 102.214 45.234C103.716 45.234 104.934 44.016 104.934 42.5141C104.934 41.0122 103.717 39.7942 102.214 39.7942C100.712 39.7942 99.4941 41.0116 99.4941 42.5141Z" fill="#F0F0F0"/>
<path d="M241.252 83.5789C241.252 84.4116 241.927 85.0864 242.759 85.0864C243.592 85.0864 244.267 84.4116 244.267 83.5789C244.267 82.7462 243.592 82.0714 242.759 82.0714C241.927 82.0714 241.252 82.7462 241.252 83.5789Z" fill="#F0F0F0"/>
<path d="M31.4022 175.955C31.8185 175.955 32.156 175.617 32.156 175.201C32.156 174.785 31.8185 174.447 31.4022 174.447C30.9859 174.447 30.6484 174.785 30.6484 175.201C30.6484 175.617 30.9859 175.955 31.4022 175.955Z" fill="#F0F0F0"/>
<path d="M215.43 203.66C215.43 204.411 216.038 205.02 216.789 205.02C217.54 205.02 218.149 204.411 218.149 203.66C218.149 202.909 217.54 202.301 216.789 202.301C216.038 202.301 215.43 202.909 215.43 203.66Z" fill="#F0F0F0"/>
<path d="M36.047 69.8051C44.1127 74.5472 54.4901 71.8547 59.2322 63.7896C59.4276 63.457 59.6102 63.1232 59.7742 62.7861C54.7718 63.915 49.356 63.2167 44.5865 60.4122C37.7797 56.4099 34.0736 49.1624 34.2769 41.7889C32.6114 43.0752 31.1577 44.693 30.0265 46.6172C25.2844 54.6823 27.9819 65.063 36.047 69.8051Z" fill="#F5F5F5"/>
<path d="M32.8465 54.5894C33.8074 55.2944 34.9873 55.4904 36.0631 55.2194C35.1649 54.9209 34.2599 54.4521 33.407 53.8261C32.5541 53.2 31.8379 52.4742 31.2773 51.707C31.3412 52.8147 31.8816 53.8815 32.8465 54.5894Z" fill="#F0F0F0"/>
<path d="M49.452 68.0266C50.5932 67.6838 51.4601 66.859 51.8908 65.837C51.1118 66.3751 50.1923 66.8153 49.1792 67.1194C48.1662 67.424 47.1548 67.5584 46.2051 67.545C47.1285 68.1598 48.3062 68.3704 49.452 68.0266Z" fill="#F0F0F0"/>
<path d="M36.1306 61.5272C37.3212 61.4706 38.3617 60.8798 39.0269 59.9928C38.141 60.3266 37.1425 60.531 36.0858 60.5814C35.0291 60.6318 34.0155 60.5181 33.0977 60.2745C33.8436 61.0949 34.9356 61.5838 36.1306 61.5272Z" fill="#F0F0F0"/>
<path d="M40.7642 67.8742C41.5246 68.7921 42.6217 69.2686 43.731 69.2675C42.9319 68.7596 42.1686 68.0848 41.4933 67.27C40.8179 66.4552 40.2999 65.5771 39.9426 64.6968C39.736 65.7866 40.0009 66.953 40.7642 67.8742Z" fill="#F0F0F0"/>
<path d="M140 239.434C199.966 239.434 248.578 236.595 248.578 233.093C248.578 229.591 199.966 226.752 140 226.752C80.0338 226.752 31.4219 229.591 31.4219 233.093C31.4219 236.595 80.0338 239.434 140 239.434Z" fill="#F5F5F5"/>
<path d="M212.87 186.21C245.915 153.164 245.915 99.5876 212.87 66.5424C179.825 33.4972 126.248 33.4972 93.2027 66.5424C60.1575 99.5876 60.1575 153.164 93.2027 186.21C126.248 219.255 179.825 219.255 212.87 186.21Z" fill="#6648D8"/>
<path opacity="0.7" d="M212.87 186.21C245.915 153.164 245.915 99.5876 212.87 66.5424C179.825 33.4972 126.248 33.4972 93.2027 66.5424C60.1575 99.5876 60.1575 153.164 93.2027 186.21C126.248 219.255 179.825 219.255 212.87 186.21Z" fill="white"/>
<g opacity="0.2">
<g opacity="0.2">
<path opacity="0.2" d="M235.772 144.712L234.456 141.798L229.632 141.274L225.776 138.855L221.737 136.676L218.384 131.929L213.729 127.959L211.408 134.61L213.864 138.444L217.988 140.736L220.074 145.045L223.52 147.698L227.22 149.282L225.96 153.732L224.651 158.535L223.717 163.855L218.574 163.53L214.754 166.515L210.53 168.037L206.243 166.721L202.55 163.417L198.001 160.276L193.013 157.637L190.204 152.919L188.386 148.964L186.087 144.818L186.002 140.114L185.882 135.416L183.823 131.348L182.232 138.154L180.612 142.278L180.711 146.827L178.978 151.072L176.848 156.102L175.709 161.125L178.666 162.943L183.392 163.303L179.706 167.817L176.367 171.991L172.802 176.03L168.309 179.468L163.18 181.625L158.228 184.122L152.505 185.141L148.402 189.315L142.672 190.277L137.528 192.895L132.237 195.024L126.542 195.081L122.566 193.079L116.906 193.008L119.368 188.629L120.713 184.752L122.361 179.234L123.301 173.355L124.419 167.688L125.975 162.976L127.794 158.159L126.11 152.93L128.529 147.922L125.784 143.649L122.735 139.963L118.809 136.942L116.354 132.818L114.486 128.623L113.121 124.18L112.428 119.362L110.787 114.247L115.216 110.066L117.862 104.973L122.495 102.087L126.945 102.518L131.975 103.113L136.948 104.096L142.388 103.212L146.612 107.634L152.066 109.353L156.919 112.183L161.744 115.09L166.619 117.984L170.071 122.837L175.335 125.213L180.252 124.668L185.027 125.114L189.731 126.132L195.377 127.929L193.594 121.018L191.826 115.231L188.26 113.413L185.325 109.423L181.101 107.838L177.168 106.056L176.666 101.804L175.35 97.5593L174.331 93.0882L168.934 90.5346L163.175 89.2825L158.025 88.2997L154.261 91.0941L149.323 91.4407L143.883 92.2684L137.742 86.9271L141.47 83.333L141.342 78.4235L143.854 74.695L149.775 72.035L153.864 67.4649L158.646 68.4835L163.167 71.3345L168.643 71.349L173.835 69.2972L179.254 70.0683L183.534 67.6631L186.52 64.0483L189.796 60.8082L194.783 60.1009L199.488 62.4142L204.426 62.4282L209.024 63.355L210.383 64.1967L210.389 64.204C232.292 84.3248 242.352 115.021 235.772 144.712Z" fill="#407BFF"/>
</g>
<path opacity="0.2" d="M159.455 189.473L156.979 193.01L151.555 194.189L147.311 195.722L153.383 197.726H158.629L162.992 194.425L163.581 191.831L159.455 189.473Z" fill="#407BFF"/>
<g opacity="0.2">
<path opacity="0.2" d="M96.0597 188.885L95.9606 188.935C85.3771 179.243 77.5455 167.082 73.0039 153.754L72.9972 153.732L72.5727 151.532L71.8727 150.167V150.153C67.7483 136.032 67.2746 120.758 71.0591 105.832L72.085 109.546L73.3159 114.766L76.4356 119.648L76.2161 125.371L78.8761 130.366L79.4277 135.806L79.7743 140.284L79.1303 144.72L76.5482 148.859L78.175 154.228L80.8137 158.862L82.4338 162.873L83.1131 168.391L85.9287 172.247L87.0751 176.973L90.2301 180.652L92.4163 184.832L96.0597 188.885Z" fill="#407BFF"/>
</g>
<g opacity="0.2">
<path opacity="0.2" d="M165.375 45.8114L162.064 47.1554L157.827 49.5891L153.547 51.9025L149.161 53.947L144.3 54.7462L139.737 56.2178L135.153 54.6969L130.406 53.7062L125.843 51.9658L121.174 52.4541L116.349 54.5765L112.422 58.2904L109.387 63.0022L103.933 64.9902L101.061 69.7799L97.9481 73.7274L97.163 78.9482L93.4558 82.7114L91.8643 87.5011L88.6029 91.4844L87.3009 95.9342L83.0846 95.3187L78.4512 94.4412L75.2676 93.366C90.4637 57.6615 127.392 37.7255 164.201 42.6138L165.375 45.8114Z" fill="#407BFF"/>
</g>
</g>
<path d="M238.64 98.4166C225.789 109.361 196.983 105.094 189.976 102.787C182.97 100.48 194.163 101.731 199.798 100.566C205.433 99.4022 207.532 94.4821 216.006 98.317C224.479 102.152 224.449 103.28 228.051 99.0573C231.653 94.8343 245.919 92.2174 238.64 98.4166Z" fill="white"/>
<path d="M69.5999 153.049C77.7059 174.63 114.943 188.602 124.839 190.486C134.736 192.369 120.537 186.453 114.577 181.331C108.616 176.21 109.365 168.943 96.705 167.914C84.0445 166.886 83.3339 168.253 81.8263 160.824C80.3183 153.396 65.0084 140.825 69.5999 153.049Z" fill="white"/>
<path d="M128.584 97.6181C105.948 93.0076 84.3807 79.3638 82.3804 71.9365C81.201 67.5573 84.4568 72.0003 88.1388 73.3712C91.8214 74.7421 99.7068 69.8785 101.95 75.7187C104.192 81.559 102.27 84.747 108.508 86.8521C114.787 88.9706 118.775 86.1168 122.344 91.1014C125.912 96.0865 134.766 98.8775 128.584 97.6181Z" fill="white"/>
<path d="M184.893 172.859C154.058 170.984 122.948 156.947 118.911 147.487C116.531 141.908 121.673 147.183 126.805 148.31C131.938 149.438 141.47 141.523 145.532 148.837C149.593 156.152 147.643 160.733 156.297 162.354C165.007 163.986 169.755 159.461 175.412 165.395C181.069 171.329 193.315 173.37 184.893 172.859Z" fill="white"/>
<path d="M204.173 196.992C190.722 206.284 164.621 205.628 159.645 201.428C156.712 198.952 163.456 198.937 166.762 198.579C170.069 198.22 174.193 191.549 178.105 195.118C182.017 198.687 179.661 200.739 185.015 199.193C190.404 197.636 191.801 193.726 196.688 195.471C201.576 197.216 208.568 193.957 204.173 196.992Z" fill="white"/>
<path d="M187.284 74.4206C203.512 78.7091 221.029 74.886 224.022 69.2642C225.788 65.9495 222.613 68.5636 219.836 68.3967C217.058 68.2298 212.842 61.2046 210.038 65.3822C207.234 69.5598 207.817 72.9842 203.16 72.5155C198.472 72.044 196.427 68.1537 192.923 71.1178C189.419 74.0824 182.851 73.2491 187.284 74.4206Z" fill="white"/>
<path d="M108.095 138.744L105.395 136.44L110.497 129.962L113.198 132.266L108.095 138.744Z" fill="#7F3E3B"/>
<path d="M106.426 135.348L109.417 137.816C109.529 137.908 109.558 138.063 109.486 138.188L107.896 140.975C107.731 141.264 107.329 141.336 107.075 141.118C106.012 140.21 104.509 138.863 103.152 137.744C101.567 136.435 101.674 136.628 99.8143 135.094C98.6898 134.166 99.373 132.816 99.9341 133.105C102.487 134.423 102.729 134.578 105.579 135.009C105.889 135.055 106.189 135.153 106.426 135.348Z" fill="#263238"/>
<path opacity="0.2" d="M110.496 129.964L107.865 133.302L110.567 135.607L113.197 132.269L110.496 129.964Z" fill="black"/>
<path d="M128.541 120.1C147.143 121.449 151.943 125.092 160.56 122.029L161.368 113.991L150.269 109.791C150.269 109.791 136.872 107.94 126.541 110.695C115.799 113.558 108.49 130.752 108.49 130.752L113.126 134.103C113.126 134.102 116.691 124.202 128.541 120.1Z" fill="black"/>
<path d="M108.737 129.05L107.557 131.252L112.365 135.313L114.024 133.677L108.737 129.05Z" fill="#263238"/>
<path d="M110.619 175.907L94.0404 173.394C87.9649 172.473 84.1222 166.374 85.9153 160.496C87.7079 154.618 94.3002 151.702 99.856 154.328L115.015 161.495C116.886 162.38 117.825 164.503 117.222 166.482L115.234 173.001C114.629 174.98 112.665 176.217 110.619 175.907Z" fill="#6648D8"/>
<path opacity="0.4" d="M110.619 175.907L94.0404 173.394C87.9649 172.473 84.1222 166.374 85.9153 160.496C87.7079 154.618 94.3002 151.702 99.856 154.328L115.015 161.495C116.886 162.38 117.825 164.503 117.222 166.482L115.234 173.001C114.629 174.98 112.665 176.217 110.619 175.907Z" fill="black"/>
<path d="M105.422 131.358C108.487 132.024 112.968 132.462 113.8 130.947C118.778 121.888 126.098 107.402 127.722 104.187C127.963 103.709 127.664 103.27 126.869 102.927L116 98.2442C113.725 97.4047 110.947 98.14 108.874 98.9419C96.0887 103.89 72.4404 114.054 66.9961 118.15C72.7742 123.432 94.9827 129.088 105.422 131.358Z" fill="#6648D8"/>
<path opacity="0.2" d="M105.302 131.358C108.368 132.024 112.848 132.462 113.681 130.947C118.658 121.888 125.979 107.402 127.603 104.187C127.844 103.709 127.545 103.27 126.75 102.927L115.881 98.2442C113.606 97.4047 110.827 98.14 108.755 98.9419C95.9695 103.89 72.3213 114.054 66.877 118.15C72.655 123.432 94.8635 129.088 105.302 131.358Z" fill="black"/>
<path d="M198.909 145.489C200.104 145.518 201.411 145.206 200.344 144.087C193.969 137.402 183.639 126.796 181.345 124.442C181.005 124.093 180.581 123.841 180.132 123.72L173.991 122.073C172.821 121.822 172.836 122.684 173.055 123.496C174.407 128.504 177.738 138.438 179.945 141.891C185.5 144.621 194.838 145.387 198.909 145.489Z" fill="#6648D8"/>
<path opacity="0.2" d="M198.909 145.489C200.104 145.518 201.411 145.206 200.344 144.087C193.969 137.402 183.639 126.796 181.345 124.442C181.005 124.093 180.581 123.841 180.132 123.72L173.991 122.073C172.821 121.822 172.836 122.684 173.055 123.496C174.407 128.504 177.738 138.438 179.945 141.891C185.5 144.621 194.838 145.387 198.909 145.489Z" fill="black"/>
<path d="M96.601 101.56C94.8678 101.182 93.157 100.83 91.5156 100.514L91.6215 99.9639C93.2667 100.281 94.9826 100.634 96.7197 101.013L96.601 101.56Z" fill="#6648D8"/>
<path d="M87.4359 99.7746C80.5904 98.6177 74.4439 98.0308 69.1659 98.0308C66.5395 98.0308 64.0598 98.1702 61.7963 98.4452L61.7285 97.8891C64.015 97.6114 66.5171 97.4702 69.1659 97.4702C74.4747 97.4702 80.6532 98.0594 87.5288 99.2219L87.4359 99.7746Z" fill="#6648D8"/>
<path d="M49.2218 103.901C75.6712 87.6394 147.209 120.338 185.735 128.868C203.624 132.829 192.674 147.382 184.102 149.283C175.529 151.183 70.5013 158.223 35.9633 142.561C1.4264 126.899 36.829 111.52 49.2218 103.901Z" fill="#6648D8"/>
<path d="M181.897 149.631C191.896 148.892 199.324 142.195 202.246 134.037C205.168 125.878 207.239 120.034 207.239 120.034C202.592 117.368 196.928 117.176 192.111 119.52L172.293 129.166L181.897 149.631Z" fill="#6648D8"/>
<path opacity="0.2" d="M180.938 138.179C182.264 141.488 186.093 145.422 188.921 148.014C192 146.776 194.691 144.913 196.882 142.639L180.938 138.179Z" fill="black"/>
<path opacity="0.2" d="M192.29 140.798C188.745 141.16 185.167 141.22 181.594 141.17C178.022 141.11 174.449 140.82 170.888 140.452C167.326 140.063 163.781 139.526 160.247 138.919C146.111 136.382 132.281 132.283 118.648 127.604C115.234 126.437 111.832 125.232 108.402 124.02C106.67 123.423 104.977 122.815 103.142 122.256C102.183 122.009 101.235 121.709 100.259 121.517L98.7855 121.248C98.2978 121.16 97.805 121.062 97.306 121.034C93.3283 120.569 89.2353 120.892 85.3562 121.928C83.4326 122.492 81.5314 123.15 79.7343 124.015C77.9373 124.87 76.2002 125.857 74.5622 126.969L73.3458 127.829L72.162 128.738L71.0442 129.665C70.7155 129.938 70.3868 130.212 70.0469 130.481C68.7102 131.555 67.313 132.591 65.8883 133.594C63.0284 135.588 60.0475 137.44 57.0011 139.106C53.9547 140.766 50.8204 142.256 47.6917 143.363C46.1298 143.911 44.563 144.371 43.089 144.623C42.6506 144.7 42.2177 144.761 41.8066 144.793C45.9932 146.152 50.8148 147.292 56.1023 148.24C57.686 147.435 59.2254 146.569 60.7436 145.676C63.9927 143.752 67.1052 141.659 70.1079 139.396C71.6149 138.262 73.0888 137.084 74.5297 135.84C74.8914 135.533 75.2476 135.21 75.6038 134.892L76.5518 134.048L77.4943 133.27L78.4749 132.525C79.7954 131.555 81.1982 130.701 82.639 129.945C84.0855 129.183 85.6031 128.602 87.1375 128.087C90.2276 127.15 93.4711 126.772 96.7046 127.029C97.11 127.035 97.5098 127.106 97.9153 127.166L99.126 127.336C99.9313 127.467 100.726 127.698 101.526 127.868C103.175 128.3 104.912 128.854 106.627 129.38C110.073 130.459 113.547 131.555 117.026 132.612C130.96 136.848 145.157 140.519 159.661 142.596C163.288 143.088 166.926 143.511 170.581 143.784C174.242 144.025 177.907 144.196 181.584 144.129C185.261 144.053 188.937 143.861 192.586 143.352C194.022 143.154 195.457 142.919 196.882 142.639C197.764 141.74 198.558 140.776 199.276 139.757C196.969 140.217 194.635 140.557 192.29 140.798Z" fill="white"/>
<path opacity="0.2" d="M129.553 149.631C129.553 149.631 103.286 149.493 78.3298 147.11C77.7569 147.055 76.1603 144.219 74.4523 143.512C74.2658 145.482 74.6164 146.738 73.6241 146.631C59.185 145.066 41.7114 141.488 34.8827 137.873C31.4124 125.453 23.755 121.717 23.755 121.717C18.9737 128.109 19.961 135.305 35.9635 142.561C70.501 158.223 175.529 151.184 184.102 149.283L129.553 149.631Z" fill="black"/>
<path d="M78.333 139.07C74.6252 139.005 72.9429 143.667 75.8314 145.993C93.0968 159.892 125.349 182.047 133.34 187.503C134.527 188.313 135.932 188.896 137.368 189.174L156.986 192.976C159.335 193.431 160.263 192.113 159.275 190.23C153.181 178.614 139.149 155.013 131.004 147.006C112.785 140.688 90.9587 139.293 78.333 139.07Z" fill="#6648D8"/>
<path opacity="0.2" d="M130.875 182.84L78.1002 141.832C76.3805 140.495 73.8627 142.179 74.575 144.238C74.7985 144.884 75.2084 145.492 75.83 145.993C93.0954 159.892 125.347 182.047 133.339 187.503C134.526 188.313 135.931 188.896 137.367 189.174L156.985 192.975C158.16 193.203 158.979 192.988 159.381 192.479L141.772 188.124C137.809 187.144 134.097 185.344 130.875 182.84Z" fill="black"/>
<path d="M179.388 135.21C178.102 135.378 177.759 137.077 178.877 137.733C185.562 141.656 197.854 147.666 200.898 149.144C201.35 149.363 201.866 149.493 202.377 149.515L209.357 149.824C210.193 149.861 210.447 149.358 210.008 148.757C207.305 145.051 201.241 137.607 198.013 135.255C191.388 134.004 183.767 134.64 179.388 135.21Z" fill="#6648D8"/>
<path opacity="0.2" d="M199.808 147.656L179.451 136.177C178.787 135.803 178.003 136.515 178.355 137.19C178.465 137.402 178.638 137.591 178.879 137.733C185.564 141.655 197.856 147.665 200.899 149.143C201.351 149.362 201.867 149.491 202.378 149.514L209.359 149.823C209.776 149.841 210.049 149.725 210.162 149.528L203.848 148.925C202.427 148.79 201.051 148.357 199.808 147.656Z" fill="black"/>
<path d="M50.5628 103.144C50.1024 103.379 49.6533 103.631 49.2204 103.9C47.5656 104.919 45.4998 106.075 43.248 107.352C44.2941 110.365 47.5987 113.883 51.7959 117.018L59.5491 111.073C55.6638 108.618 52.3598 105.801 50.5628 103.144Z" fill="white"/>
<path d="M62.3147 112.706L55.4004 119.489C57.1722 120.599 59.0225 121.615 60.8699 122.488C63.321 123.646 66.2398 122.472 67.222 119.945C68.1074 117.668 67.087 115.101 64.8879 114.037C64.0205 113.617 63.1603 113.172 62.3147 112.706Z" fill="white"/>
<path d="M213.136 133.267C226.31 136.053 260.295 141.653 242.915 120.826C263.018 141.325 241.656 144.425 223.334 145.489C219.875 145.689 216.512 144.297 214.212 141.707C212.663 139.963 211.477 138.307 210.587 136.878C209.468 135.085 211.068 132.83 213.136 133.267Z" fill="#6648D8"/>
<path opacity="0.2" d="M212.972 133.279C226.212 136.079 260.365 141.706 242.898 120.776C263.101 141.376 241.633 144.492 223.221 145.561C219.746 145.762 216.366 144.364 214.054 141.761C212.497 140.008 211.306 138.344 210.41 136.908C209.287 135.106 210.894 132.84 212.972 133.279Z" fill="white"/>
<path d="M163.132 69.6024C163.274 70.5387 162.966 71.4526 162.489 72.0703C161.772 72.9999 160.705 72.5334 160.312 71.4958C159.958 70.5611 159.905 68.9517 160.909 68.3939C161.899 67.844 162.969 68.5322 163.132 69.6024Z" fill="#7F3E3B"/>
<path opacity="0.2" d="M163.132 69.6024C163.274 70.5387 162.966 71.4526 162.489 72.0703C161.772 72.9999 160.705 72.5334 160.312 71.4958C159.958 70.5611 159.905 68.9517 160.909 68.3939C161.899 67.844 162.969 68.5322 163.132 69.6024Z" fill="black"/>
<path d="M161.298 69.935C158.987 69.0334 161.051 64.1155 163.561 64.2555C163.897 62.2955 167.413 62.1953 169.721 63.4665C172.03 64.7382 173.126 66.3594 174.042 67.8894C175.695 70.6496 178.479 70.905 178.308 71.9006C178.086 73.1909 175.461 71.3759 174.644 71.7959C173.828 72.2159 178.284 73.1102 178.238 74.4598C178.191 75.8094 175.298 74.0986 174.388 73.729C173.478 73.3594 172.782 74.1283 174.87 75.3502C177.622 76.9602 176.018 77.7767 174.93 76.958C172.791 75.348 170.514 75.9724 172.171 77.4189C173.827 78.8654 171.891 79.3565 170.607 77.793C169.324 76.2289 168.373 78.9124 165.71 76.7889C163.047 74.6654 162.132 73.9088 161.298 69.935Z" fill="#263238"/>
<path d="M119.452 146.386L113.799 152.394L111.061 149.556L116.713 143.549L119.452 146.386Z" fill="#7F3E3B"/>
<path d="M112.026 148.857L115.332 150.878C115.456 150.954 115.502 151.1 115.443 151.23L114.123 154.132C113.986 154.432 113.586 154.552 113.303 154.373C112.125 153.625 111.805 153.304 110.306 152.388C108.553 151.316 107.32 151.137 105.228 149.941C103.964 149.218 104.471 147.814 105.08 148C107.008 148.591 109.936 148.903 111.128 148.634C111.441 148.563 111.765 148.697 112.026 148.857Z" fill="#263238"/>
<path opacity="0.2" d="M119.453 146.39L116.538 149.486L113.799 146.647L116.713 143.551L119.453 146.39Z" fill="black"/>
<path d="M138.796 132.046C149.918 125.793 169.458 127.975 169.458 116.659L157.115 112.375C157.115 112.375 140.879 116.621 132.742 123.902C124.282 131.472 114.844 144.068 114.844 144.068L118.823 148.192C118.823 148.192 129.385 140.323 138.796 132.046Z" fill="#263238"/>
<path d="M114.791 142.709L113.543 144.852L118.471 148.975L120.209 147.4L114.791 142.709Z" fill="white"/>
<path d="M159.487 85.7556C158.261 86.2181 157.086 86.5749 155.872 86.9462C154.665 87.3029 153.441 87.626 152.194 87.9004C150.95 88.1838 149.683 88.4206 148.365 88.5802C147.038 88.7387 145.709 88.8614 144.129 88.6978L143.986 88.6833C143.619 88.6452 143.275 88.5074 142.994 88.3081C142.417 87.897 141.921 87.3438 141.647 86.8028C141.336 86.2512 141.204 85.741 141.11 85.265C140.941 84.3192 140.986 83.5341 141.062 82.7966C141.228 81.3299 141.619 80.0665 142.037 78.8351C142.472 77.6121 142.972 76.4467 143.522 75.3127C144.089 74.181 144.658 73.0906 145.34 71.9986C145.733 71.3698 146.561 71.1782 147.19 71.5714C147.717 71.9006 147.937 72.5351 147.763 73.1018L147.75 73.1427C147.411 74.2521 147.05 75.404 146.753 76.5385C146.444 77.6737 146.158 78.8066 145.941 79.921C145.717 81.0258 145.566 82.1419 145.563 83.0978C145.56 83.5677 145.612 84.009 145.701 84.2509C145.726 84.2968 145.739 84.3758 145.763 84.3819C145.779 84.4088 145.79 84.4334 145.795 84.4099C145.797 84.4144 145.755 84.2862 145.659 84.2391L144.524 83.8494C145.385 83.8684 146.5 83.6982 147.583 83.4982C148.678 83.2877 149.802 83.0172 150.929 82.7153C152.054 82.4101 153.187 82.0893 154.317 81.7421C155.442 81.4111 156.594 81.0275 157.673 80.6814L157.713 80.6685C159.13 80.2144 160.646 80.995 161.101 82.4118C161.54 83.7844 160.817 85.2505 159.487 85.7556Z" fill="#7F3E3B"/>
<path d="M146.861 74.9409L150.319 73.4698L147.445 70.2537C147.445 70.2537 144.208 71.8553 145.011 73.7654L146.861 74.9409Z" fill="#7F3E3B"/>
<path d="M151.692 71.0517L150.445 69.5671C150.129 69.1902 149.591 69.0883 149.158 69.323L147.445 70.2531L150.319 73.4692L151.531 72.5368C151.997 72.1784 152.07 71.503 151.692 71.0517Z" fill="#7F3E3B"/>
<path d="M159.972 79.5161C156.489 79.0541 150.879 82.3945 150.879 82.3945C150.878 85.316 151.519 87.7363 152.259 90.0794C152.259 90.0794 154.891 89.8313 158.32 88.023C159.358 87.4754 164.096 80.0632 159.972 79.5161Z" fill="#F0F0F0"/>
<path d="M159.569 79.4819C163.412 79.786 169.306 81.0258 173.2 82.5177C175.275 83.3134 176.608 85.3406 176.479 87.5594C176.18 92.7041 175.617 103.086 170.831 116.947C168.864 117.017 160.393 116.196 156.254 114.707C155.805 114.545 155.618 112.545 155.618 112.545C155.618 112.545 154.264 112.483 153.471 112.871C152.024 112.245 150.338 110.573 149.979 109.877C152.002 106.681 152.951 99.339 153.549 93.1291C153.612 90.6808 153.72 86.235 154.88 83.7435C155.977 81.3887 156.98 79.277 159.569 79.4819Z" fill="white"/>
<path d="M162.944 86.4382C162.87 86.6544 162.701 86.7916 162.567 86.7457C162.433 86.6998 162.384 86.4869 162.459 86.2708C162.533 86.0546 162.702 85.9174 162.836 85.9634C162.971 86.0098 163.019 86.2226 162.944 86.4382Z" fill="#6648D8"/>
<path d="M168.9 74.5114C168.489 77.1473 168.134 80.239 169.498 82.2074C168.31 83.7609 165.699 84.8758 163.143 85.3535C161.656 83.337 161.971 81.527 162.759 80.5134C164.294 79.562 164.167 77.9593 164.18 76.8505L168.9 74.5114Z" fill="#7F3E3B"/>
<path d="M163.143 85.353C163.143 85.353 162.643 84.616 162.622 83.818C162.602 83.02 161.182 83.4596 161.182 83.4596C161.182 83.4596 161.808 84.6065 163.143 85.353Z" fill="#E0E0E0"/>
<path d="M163.143 85.353C163.143 85.353 163.381 84.4659 164.484 84.3707C165.588 84.2755 166.536 84.695 166.536 84.695C166.536 84.695 164.512 85.4756 163.143 85.353Z" fill="#E0E0E0"/>
<path opacity="0.2" d="M167.782 75.5272C167.813 75.3609 167.835 75.1918 167.856 75.0271L164.18 76.8516C164.172 77.5146 164.213 78.358 163.92 79.1297C165.636 78.5949 167.501 77.1159 167.782 75.5272Z" fill="black"/>
<path d="M170.941 71.1094C169.521 74.3333 168.854 76.2944 166.565 77.3578C163.123 78.9578 159.614 75.9046 160.044 72.3117C160.43 69.0777 162.687 64.3485 166.396 64.2572C170.05 64.167 172.361 67.8849 170.941 71.1094Z" fill="#7F3E3B"/>
<path d="M163.922 64.5865C163.406 66.701 169.499 67.76 169.499 67.76C169.499 67.76 166.174 73.3359 170.049 73.1214C173.924 72.9075 174.131 68.2142 171.121 65.3565C169.009 63.3517 165.433 62.6612 163.922 64.5865Z" fill="#263238"/>
<path d="M161.715 72.7132C161.715 72.7132 162.812 72.6902 165.711 73.2995C165.134 74.1098 164.307 74.6962 162.826 74.3697C161.344 74.0438 161.715 72.7132 161.715 72.7132Z" fill="#263238"/>
<path d="M163.701 73.8214C162.986 73.6635 162.424 73.7201 161.969 73.9077C162.138 74.107 162.411 74.2773 162.825 74.368C163.54 74.5254 164.097 74.4727 164.554 74.2812C164.384 74.0818 164.115 73.9127 163.701 73.8214Z" fill="#FF5652"/>
<path d="M161.854 72.7154C161.885 72.921 161.916 73.1259 162.19 73.2486C162.783 73.4171 164.376 73.5689 164.815 73.5683C165.093 73.5801 165.344 73.5358 165.586 73.2732C163.352 72.8095 162.221 72.7289 161.854 72.7154Z" fill="white"/>
<path d="M171.126 73.9883C170.446 74.6474 169.523 74.9274 168.743 74.8983C167.57 74.8541 167.33 73.7156 167.947 72.7922C168.502 71.9611 169.781 70.9828 170.819 71.4767C171.841 71.9634 171.903 73.2346 171.126 73.9883Z" fill="#7F3E3B"/>
<path d="M166.529 70.2307C166.43 70.4995 166.208 70.6636 166.033 70.597C165.857 70.5303 165.796 70.2587 165.895 69.9899C165.994 69.7211 166.216 69.557 166.392 69.6237C166.567 69.6903 166.629 69.9619 166.529 70.2307Z" fill="#263238"/>
<path d="M163.182 68.9685C163.083 69.2373 162.86 69.4014 162.685 69.3347C162.51 69.2681 162.448 68.9965 162.547 68.7277C162.646 68.4589 162.869 68.2948 163.044 68.3614C163.219 68.4275 163.281 68.6997 163.182 68.9685Z" fill="#263238"/>
<path d="M164.289 69.3991C164.289 69.3991 163.058 70.672 162.092 71.129C162.379 71.764 163.255 71.9006 163.255 71.9006L164.289 69.3991Z" fill="#630F0F"/>
<path d="M167.777 69.0822C167.803 69.0911 167.832 69.0934 167.862 69.0872C167.952 69.0693 168.011 68.9802 167.992 68.889C167.806 67.9728 167.088 67.6738 167.058 67.6614C166.971 67.6267 166.874 67.6687 166.84 67.755C166.806 67.8412 166.848 67.9392 166.934 67.9745C166.957 67.9846 167.515 68.2231 167.663 68.9545C167.676 69.0166 167.721 69.0637 167.777 69.0822Z" fill="#263238"/>
<path d="M162.439 67.1765C162.491 67.1949 162.549 67.1882 162.596 67.1535C163.188 66.7094 163.761 66.9077 163.785 66.9166C163.872 66.948 163.968 66.9032 163.999 66.8158C164.029 66.7285 163.985 66.6321 163.898 66.5997C163.866 66.5885 163.135 66.3258 162.393 66.8825C162.319 66.9379 162.304 67.0438 162.36 67.1188C162.381 67.1462 162.409 67.1653 162.439 67.1765Z" fill="#263238"/>
<path d="M176.796 86.6656C177.108 88.317 177.322 89.913 177.54 91.5438C177.745 93.1689 177.891 94.8041 178.014 96.4505C178.138 98.0974 178.207 99.7584 178.185 101.451C178.157 103.153 178.081 104.854 177.685 106.734L177.658 106.865C177.587 107.202 177.43 107.51 177.224 107.759C176.359 108.795 175.441 109.687 174.511 110.542C173.583 111.397 172.612 112.17 171.642 112.933C170.663 113.686 169.665 114.399 168.65 115.084C167.622 115.758 166.611 116.418 165.523 117.032C164.876 117.397 164.056 117.169 163.691 116.522C163.386 115.981 163.496 115.319 163.919 114.903L163.938 114.885L166.465 112.404C167.303 111.573 168.14 110.747 168.948 109.903C170.565 108.236 172.143 106.509 173.369 104.792L172.908 105.816C173.098 104.537 173.089 103.011 173.044 101.51C172.981 99.9936 172.859 98.4497 172.713 96.9002C172.563 95.3495 172.359 93.795 172.154 92.2376C171.959 90.6864 171.714 89.1066 171.488 87.5952L171.483 87.5622C171.264 86.091 172.279 84.7202 173.751 84.5012C175.187 84.2873 176.527 85.2533 176.796 86.6656Z" fill="#7F3E3B"/>
<path d="M173.414 82.6056C178.682 84.7756 178.086 92.2309 178.086 92.2309C176.165 94.6613 174.034 96.5602 171.248 96.7982C171.248 96.7982 168.991 94.6529 169.014 90.7777C169.032 87.8041 169.567 81.0208 173.414 82.6056Z" fill="white"/>
<path d="M165.916 113.714L162.326 113.934L163.787 117.993C163.787 117.993 167.012 117.398 166.974 115.633L165.916 113.714Z" fill="#7F3E3B"/>
<path d="M159.83 116.714L160.582 118.05C160.881 118.582 161.521 118.819 162.095 118.609L163.786 117.993L162.326 113.934L160.328 115.004C159.712 115.333 159.488 116.105 159.83 116.714Z" fill="#7F3E3B"/>
<path d="M168.919 80.6697C168.769 81.4722 168.089 84.1568 164.484 84.3707C165.737 84.7538 165.798 87.9894 165.798 87.9894C165.798 87.9894 169.738 84.7123 170.048 81.783C169.938 81.0146 168.919 80.6697 168.919 80.6697Z" fill="#6648D8"/>
<path d="M163.746 79.3671C163.6 80.1511 162.409 81.4822 162.623 83.818C161.364 83.4568 159.502 85.3658 159.502 85.3658C159.502 85.3658 160.107 82.0837 162.237 79.7205C163.083 79.3358 163.746 79.3671 163.746 79.3671Z" fill="#6648D8"/>
</svg>
